<svg width="3840" height="2160" viewBox="0 0 3840 2160" fill="none" xmlns="http://www.w3.org/2000/svg">
<rect width="3840" height="2160" fill="white"/>
<path d="M1642.13 1231.09V942.961C1642.13 937.986 1648.21 935.576 1651.62 939.202L1782.26 1078.26C1784.43 1080.57 1788.09 1080.57 1790.26 1078.26L1920.9 939.202C1924.31 935.576 1930.39 937.986 1930.39 942.961V1231.09" stroke="url(#paint0_linear_203_38)" stroke-width="41.1809" stroke-linecap="round"/>
<path d="M2084.14 1231.09V942.961C2084.14 937.986 2090.22 935.576 2093.63 939.202L2224.27 1078.26C2226.44 1080.57 2230.1 1080.57 2232.27 1078.26L2362.91 939.202C2366.32 935.576 2372.4 937.986 2372.4 942.961V1231.09" stroke="url(#paint1_linear_203_38)" stroke-width="41.1809" stroke-linecap="round"/>
<path d="M2567.33 929.097V1393.07" stroke="url(#paint2_linear_203_38)" stroke-width="41.1809" stroke-linecap="round"/>
<path fill-rule="evenodd" clip-rule="evenodd" d="M2742.54 914.054C2731.17 914.054 2721.95 923.272 2721.95 934.644C2721.95 946.016 2731.17 955.235 2742.54 955.235H2848.48V1233.02C2848.48 1244.39 2857.7 1253.61 2869.07 1253.61C2880.44 1253.61 2889.66 1244.39 2889.66 1233.02V955.235H2995.61C3006.98 955.235 3016.2 946.016 3016.2 934.644C3016.2 923.272 3006.98 914.054 2995.61 914.054H2742.54Z" fill="url(#paint3_linear_203_38)"/>
<circle cx="1342.88" cy="1080.09" r="144.133" stroke="url(#paint4_linear_203_38)" stroke-width="41.1809"/>
<mask id="path-6-inside-1_203_38" fill="white">
<path d="M1105.2 1196.57C1081.91 1219.86 1052.18 1235.63 1019.84 1241.85C987.504 1248.07 954.043 1244.46 923.778 1231.47C893.514 1218.49 867.836 1196.73 850.059 1169.01C832.283 1141.29 823.224 1108.87 824.052 1075.95C824.88 1043.03 835.557 1011.11 854.705 984.319C873.853 957.526 900.592 937.086 931.471 925.64C962.35 914.194 995.951 912.266 1027.94 920.106C1059.92 927.945 1088.82 945.192 1110.91 969.62L1083.22 994.651C1066.14 975.758 1043.79 962.419 1019.05 956.356C994.313 950.293 968.326 951.784 944.443 960.637C920.561 969.489 899.88 985.297 885.071 1006.02C870.262 1026.74 862.004 1051.43 861.364 1076.89C860.723 1102.35 867.73 1127.42 881.478 1148.86C895.227 1170.3 915.087 1187.13 938.494 1197.17C961.901 1207.22 987.781 1210.01 1012.79 1205.2C1037.8 1200.39 1060.8 1188.19 1078.81 1170.18L1105.2 1196.57Z"/>
</mask>
<path d="M1105.2 1196.57C1081.91 1219.86 1052.18 1235.63 1019.84 1241.85C987.504 1248.07 954.043 1244.46 923.778 1231.47C893.514 1218.49 867.836 1196.73 850.059 1169.01C832.283 1141.29 823.224 1108.87 824.052 1075.95C824.88 1043.03 835.557 1011.11 854.705 984.319C873.853 957.526 900.592 937.086 931.471 925.64C962.35 914.194 995.951 912.266 1027.94 920.106C1059.92 927.945 1088.82 945.192 1110.91 969.62L1083.22 994.651C1066.14 975.758 1043.79 962.419 1019.05 956.356C994.313 950.293 968.326 951.784 944.443 960.637C920.561 969.489 899.88 985.297 885.071 1006.02C870.262 1026.74 862.004 1051.43 861.364 1076.89C860.723 1102.35 867.73 1127.42 881.478 1148.86C895.227 1170.3 915.087 1187.13 938.494 1197.17C961.901 1207.22 987.781 1210.01 1012.79 1205.2C1037.8 1200.39 1060.8 1188.19 1078.81 1170.18L1105.2 1196.57Z" stroke="url(#paint5_linear_203_38)" stroke-width="82.3619" mask="url(#path-6-inside-1_203_38)"/>
<path fill-rule="evenodd" clip-rule="evenodd" d="M2568.29 863.089C2594.83 863.089 2616.34 841.579 2616.34 815.044C2616.34 788.51 2594.83 767 2568.29 767C2541.76 767 2520.25 788.51 2520.25 815.044C2520.25 841.579 2541.76 863.089 2568.29 863.089ZM2568.29 846.616C2585.73 846.616 2599.86 832.481 2599.86 815.044C2599.86 797.608 2585.73 783.472 2568.29 783.472C2550.86 783.472 2536.72 797.608 2536.72 815.044C2536.72 832.481 2550.86 846.616 2568.29 846.616Z" fill="#004475"/>
<defs>
<linearGradient id="paint0_linear_203_38" x1="1786.26" y1="929.097" x2="1786.26" y2="1231.09" gradientUnits="userSpaceOnUse">
<stop stop-color="#7FBAC3"/>
<stop offset="1" stop-color="#5990B4"/>
</linearGradient>
<linearGradient id="paint1_linear_203_38" x1="2228.27" y1="929.097" x2="2228.27" y2="1231.09" gradientUnits="userSpaceOnUse">
<stop stop-color="#7CB7C2"/>
<stop offset="1" stop-color="#5A91B5"/>
</linearGradient>
<linearGradient id="paint2_linear_203_38" x1="2567.83" y1="929.097" x2="2567.83" y2="1393.07" gradientUnits="userSpaceOnUse">
<stop stop-color="#5E95B7"/>
<stop offset="1" stop-color="#7BB6C2"/>
</linearGradient>
<linearGradient id="paint3_linear_203_38" x1="2852.43" y1="914.125" x2="2852.43" y2="1250.26" gradientUnits="userSpaceOnUse">
<stop stop-color="#7CB7C2"/>
<stop offset="1" stop-color="#5C92B6"/>
</linearGradient>
<linearGradient id="paint4_linear_203_38" x1="1342.88" y1="915.37" x2="1342.88" y2="1244.82" gradientUnits="userSpaceOnUse">
<stop stop-color="#80BCC3"/>
<stop offset="1" stop-color="#568CB2"/>
</linearGradient>
<linearGradient id="paint5_linear_203_38" x1="988.724" y1="915.37" x2="988.724" y2="1244.82" gradientUnits="userSpaceOnUse">
<stop stop-color="#82BEC3"/>
<stop offset="1" stop-color="#5389B0"/>
</linearGradient>
</defs>
</svg>
