<svg width="3840" height="2160" viewBox="0 0 3840 2160" fill="none" xmlns="http://www.w3.org/2000/svg">
<rect width="3840" height="2160" fill="white"/>
<path d="M1992.13 1231.09V942.961C1992.13 937.986 1998.21 935.576 2001.62 939.202L2132.26 1078.26C2134.43 1080.57 2138.09 1080.57 2140.26 1078.26L2270.9 939.202C2274.31 935.576 2280.39 937.986 2280.39 942.961V1231.09" stroke="url(#paint0_linear_203_38)" stroke-width="41.1809" stroke-linecap="round"/>
<path d="M2434.14 1231.09V942.961C2434.14 937.986 2440.22 935.576 2443.63 939.202L2574.27 1078.26C2576.44 1080.57 2580.1 1080.57 2582.27 1078.26L2712.91 939.202C2716.32 935.576 2722.4 937.986 2722.4 942.961V1231.09" stroke="url(#paint1_linear_203_38)" stroke-width="41.1809" stroke-linecap="round"/>
<path d="M2917.33 929.097V1393.07" stroke="url(#paint2_linear_203_38)" stroke-width="41.1809" stroke-linecap="round"/>
<path fill-rule="evenodd" clip-rule="evenodd" d="M3092.54 914.054C3081.17 914.054 3071.95 923.272 3071.95 934.644C3071.95 946.016 3081.17 955.235 3092.54 955.235H3198.48V1233.02C3198.48 1244.39 3207.7 1253.61 3219.07 1253.61C3230.44 1253.61 3239.66 1244.39 3239.66 1233.02V955.235H3345.61C3356.98 955.235 3366.2 946.016 3366.2 934.644C3366.2 923.272 3356.98 914.054 3345.61 914.054H3092.54Z" fill="url(#paint3_linear_203_38)"/>
<circle cx="1692.88" cy="1080.09" r="144.133" stroke="url(#paint4_linear_203_38)" stroke-width="41.1809"/>
<mask id="path-6-inside-1_203_38" fill="white">
<path d="M1455.2 1196.57C1431.91 1219.86 1402.18 1235.63 1369.84 1241.85C1337.5 1248.07 1304.04 1244.46 1273.78 1231.47C1243.51 1218.49 1217.84 1196.73 1200.06 1169.01C1182.28 1141.29 1173.22 1108.87 1174.05 1075.95C1174.88 1043.03 1185.56 1011.11 1204.7 984.319C1223.85 957.526 1250.59 937.086 1281.47 925.64C1312.35 914.194 1345.95 912.266 1377.94 920.106C1409.92 927.945 1438.82 945.192 1460.91 969.62L1433.22 994.651C1416.14 975.758 1393.79 962.419 1369.05 956.356C1344.31 950.293 1318.33 951.784 1294.44 960.637C1270.56 969.489 1249.88 985.297 1235.07 1006.02C1220.26 1026.74 1212 1051.43 1211.36 1076.89C1210.72 1102.35 1217.73 1127.42 1231.48 1148.86C1245.23 1170.3 1265.09 1187.13 1288.49 1197.17C1311.9 1207.22 1337.78 1210.01 1362.79 1205.2C1387.8 1200.39 1410.8 1188.19 1428.81 1170.18L1455.2 1196.57Z"/>
</mask>
<path d="M1455.2 1196.57C1431.91 1219.86 1402.18 1235.63 1369.84 1241.85C1337.5 1248.07 1304.04 1244.46 1273.78 1231.47C1243.51 1218.49 1217.84 1196.73 1200.06 1169.01C1182.28 1141.29 1173.22 1108.87 1174.05 1075.95C1174.88 1043.03 1185.56 1011.11 1204.7 984.319C1223.85 957.526 1250.59 937.086 1281.47 925.64C1312.35 914.194 1345.95 912.266 1377.94 920.106C1409.92 927.945 1438.82 945.192 1460.91 969.62L1433.22 994.651C1416.14 975.758 1393.79 962.419 1369.05 956.356C1344.31 950.293 1318.33 951.784 1294.44 960.637C1270.56 969.489 1249.88 985.297 1235.07 1006.02C1220.26 1026.74 1212 1051.43 1211.36 1076.89C1210.72 1102.35 1217.73 1127.42 1231.48 1148.86C1245.23 1170.3 1265.09 1187.13 1288.49 1197.17C1311.9 1207.22 1337.78 1210.01 1362.79 1205.2C1387.8 1200.39 1410.8 1188.19 1428.81 1170.18L1455.2 1196.57Z" stroke="url(#paint5_linear_203_38)" stroke-width="82.3619" mask="url(#path-6-inside-1_203_38)"/>
<path fill-rule="evenodd" clip-rule="evenodd" d="M2918.29 863.089C2944.83 863.089 2966.34 841.579 2966.34 815.044C2966.34 788.51 2944.83 767 2918.29 767C2891.76 767 2870.25 788.51 2870.25 815.044C2870.25 841.579 2891.76 863.089 2918.29 863.089ZM2918.29 846.616C2935.73 846.616 2949.86 832.481 2949.86 815.044C2949.86 797.608 2935.73 783.472 2918.29 783.472C2900.86 783.472 2886.72 797.608 2886.72 815.044C2886.72 832.481 2900.86 846.616 2918.29 846.616Z" fill="#004475"/>
<circle cx="776.979" cy="1083.74" r="155.859" transform="rotate(-19.1136 776.979 1083.74)" stroke="#29788B" stroke-width="16.4062"/>
<path d="M490.175 1145.29C485.921 1146.85 483.738 1151.56 485.299 1155.82C486.859 1160.07 491.572 1162.25 495.825 1160.69L490.175 1145.29ZM998.407 967.567C1006.73 990.251 1031.86 1001.89 1054.55 993.571C1077.23 985.249 1088.87 960.113 1080.55 937.429C1072.23 914.745 1047.09 903.103 1024.41 911.425C1001.73 919.748 990.084 944.883 998.407 967.567ZM495.825 1160.69L1042.3 960.199L1036.65 944.797L490.175 1145.29L495.825 1160.69Z" fill="#29788B"/>
<path d="M812.812 1170.48L749.061 1121.17L829.552 1091.64L812.812 1170.48Z" fill="#29788B"/>
<defs>
<linearGradient id="paint0_linear_203_38" x1="2136.26" y1="929.097" x2="2136.26" y2="1231.09" gradientUnits="userSpaceOnUse">
<stop stop-color="#7FBAC3"/>
<stop offset="1" stop-color="#5990B4"/>
</linearGradient>
<linearGradient id="paint1_linear_203_38" x1="2578.27" y1="929.097" x2="2578.27" y2="1231.09" gradientUnits="userSpaceOnUse">
<stop stop-color="#7CB7C2"/>
<stop offset="1" stop-color="#5A91B5"/>
</linearGradient>
<linearGradient id="paint2_linear_203_38" x1="2917.83" y1="929.097" x2="2917.83" y2="1393.07" gradientUnits="userSpaceOnUse">
<stop stop-color="#5E95B7"/>
<stop offset="1" stop-color="#7BB6C2"/>
</linearGradient>
<linearGradient id="paint3_linear_203_38" x1="3202.43" y1="914.125" x2="3202.43" y2="1250.26" gradientUnits="userSpaceOnUse">
<stop stop-color="#7CB7C2"/>
<stop offset="1" stop-color="#5C92B6"/>
</linearGradient>
<linearGradient id="paint4_linear_203_38" x1="1692.88" y1="915.37" x2="1692.88" y2="1244.82" gradientUnits="userSpaceOnUse">
<stop stop-color="#80BCC3"/>
<stop offset="1" stop-color="#568CB2"/>
</linearGradient>
<linearGradient id="paint5_linear_203_38" x1="1338.72" y1="915.37" x2="1338.72" y2="1244.82" gradientUnits="userSpaceOnUse">
<stop stop-color="#82BEC3"/>
<stop offset="1" stop-color="#5389B0"/>
</linearGradient>
</defs>
</svg>
