<svg width="1270" height="720" viewBox="0 0 1270 720" fill="none" xmlns="http://www.w3.org/2000/svg">
<g clip-path="url(#clip0_389_1245)">
<rect width="1270" height="720" fill="white"/>
<path d="M558.265 394.26C554.765 394.26 551.615 393.91 548.815 393.21C546.085 392.58 543.915 391.95 542.305 391.32C540.695 390.62 539.89 390.27 539.89 390.27L539.26 388.905C539.26 388.905 539.4 388.415 539.68 387.435C539.96 386.385 540.31 385.02 540.73 383.34C541.15 381.59 541.57 379.665 541.99 377.565C542.48 375.465 542.865 373.295 543.145 371.055L551.545 370.32C551.125 374.17 551.09 377.215 551.44 379.455C551.86 381.625 552.805 383.165 554.275 384.075C555.815 384.985 558.02 385.44 560.89 385.44C564.39 385.44 567.225 384.6 569.395 382.92C571.565 381.24 572.65 379.035 572.65 376.305C572.65 373.925 571.565 371.93 569.395 370.32C567.225 368.64 564.67 367.03 561.73 365.49C559.21 364.09 556.69 362.585 554.17 360.975C551.65 359.365 549.55 357.44 547.87 355.2C546.19 352.96 545.35 350.195 545.35 346.905C545.35 342.565 546.575 338.715 549.025 335.355C551.475 331.995 554.835 329.335 559.105 327.375C563.445 325.415 568.38 324.435 573.91 324.435C577.27 324.435 580.28 324.68 582.94 325.17C585.67 325.59 587.84 326.045 589.45 326.535C591.06 326.955 591.865 327.165 591.865 327.165L592.39 328.53C592.39 328.53 592.145 329.37 591.655 331.05C591.165 332.66 590.57 334.83 589.87 337.56C589.17 340.29 588.505 343.265 587.875 346.485L580.21 347.115L579.37 346.38C579.37 346.38 579.44 346.065 579.58 345.435C579.72 344.805 579.86 344.035 580 343.125C580.14 342.215 580.21 341.445 580.21 340.815C580.21 338.295 579.475 336.51 578.005 335.46C576.605 334.34 574.33 333.78 571.18 333.78C568.1 333.78 565.51 334.585 563.41 336.195C561.38 337.805 560.365 339.835 560.365 342.285C560.365 344.175 561.065 345.82 562.465 347.22C563.865 348.62 565.65 349.95 567.82 351.21C569.85 352.4 572.02 353.625 574.33 354.885C576.71 356.145 578.915 357.545 580.945 359.085C583.045 360.555 584.76 362.305 586.09 364.335C587.42 366.365 588.085 368.78 588.085 371.58C588.085 375.99 586.86 379.91 584.41 383.34C581.96 386.77 578.495 389.465 574.015 391.425C569.605 393.315 564.355 394.26 558.265 394.26ZM622.056 376.62L623.736 380.295C621.636 382.955 619.536 385.335 617.436 387.435C615.406 389.535 613.516 391.215 611.766 392.475C610.086 393.665 608.686 394.26 607.566 394.26C604.206 394.26 601.651 393.35 599.901 391.53C598.221 389.71 597.591 387.19 598.011 383.97L603.261 352.47L602.526 351.84L596.016 351.735L595.701 351.21L596.226 346.38L604.311 345.12C604.591 343.16 604.836 341.27 605.046 339.45C605.256 337.56 605.431 336.02 605.571 334.83C605.781 333.57 605.886 332.94 605.886 332.94L619.011 329.265L620.061 330.525C620.061 330.525 619.851 331.225 619.431 332.625C619.081 334.025 618.591 335.845 617.961 338.085C617.401 340.325 616.841 342.74 616.281 345.33L627.831 345.225L628.356 345.75L627.306 351.63L616.071 351.525L614.811 352.26L609.666 379.035C609.386 381.275 610.121 382.395 611.871 382.395C612.711 382.395 613.761 381.94 615.021 381.03C616.281 380.12 618.031 378.545 620.271 376.305L622.056 376.62ZM663.73 353.205C663.73 356.285 662.855 359.015 661.105 361.395C659.425 363.705 656.73 365.875 653.02 367.905C649.31 369.865 644.375 371.825 638.215 373.785C638.215 377.005 638.81 379.56 640 381.45C641.19 383.34 642.835 384.285 644.935 384.285C646.895 384.285 648.785 383.585 650.605 382.185C652.495 380.715 654.14 378.65 655.54 375.99L657.43 376.2L660.685 380.295C659.425 382.955 657.71 385.335 655.54 387.435C653.37 389.535 650.99 391.215 648.4 392.475C645.88 393.665 643.325 394.26 640.735 394.26C636.325 394.26 632.79 392.615 630.13 389.325C627.54 386.035 626.245 381.59 626.245 375.99C626.245 371.72 626.945 367.66 628.345 363.81C629.815 359.89 631.775 356.39 634.225 353.31C636.745 350.23 639.58 347.815 642.73 346.065C645.95 344.245 649.275 343.335 652.705 343.335C656.135 343.335 658.83 344.21 660.79 345.96C662.75 347.64 663.73 350.055 663.73 353.205ZM649.135 352.365C647.525 352.365 645.985 353.03 644.515 354.36C643.115 355.62 641.89 357.405 640.84 359.715C639.86 361.955 639.125 364.545 638.635 367.485C643.465 365.875 647 364.16 649.24 362.34C651.48 360.45 652.6 358.385 652.6 356.145C652.6 353.625 651.445 352.365 649.135 352.365ZM662.641 411.795C664.461 411.585 665.756 411.025 666.526 410.115C667.366 409.205 668.101 407.455 668.731 404.865C669.011 403.605 669.396 401.61 669.886 398.88C670.376 396.22 670.901 393.14 671.461 389.64C672.021 386.14 672.581 382.57 673.141 378.93C673.771 375.22 674.296 371.72 674.716 368.43C675.206 365.07 675.591 362.235 675.871 359.925C676.151 357.615 676.291 356.11 676.291 355.41C676.291 354.08 675.976 353.1 675.346 352.47C674.716 351.84 673.701 351.525 672.301 351.525H668.521L669.571 345.435C671.181 345.435 673.106 345.4 675.346 345.33C677.586 345.26 679.931 345.155 682.381 345.015C684.901 344.805 687.246 344.665 689.416 344.595L690.676 346.17C688.576 352.54 686.861 359.26 685.531 366.33L686.161 366.54C688.191 362.41 690.081 358.91 691.831 356.04C693.581 353.1 695.296 350.615 696.976 348.585C698.726 346.485 700.476 344.735 702.226 343.335C706.356 343.335 709.611 344.84 711.991 347.85C714.441 350.79 715.666 354.78 715.666 359.82C715.666 363.88 714.966 367.905 713.566 371.895C712.166 375.885 710.276 379.49 707.896 382.71C705.586 385.93 702.996 388.52 700.126 390.48C697.256 392.44 694.386 393.42 691.516 393.42L681.436 391.74L679.441 405.6C679.161 407.63 679.336 408.995 679.966 409.695C680.596 410.395 681.891 410.745 683.851 410.745H688.366L688.471 411.375L687.421 417.045C685.041 417.045 682.311 417.08 679.231 417.15C676.221 417.22 673.176 417.29 670.096 417.36C667.016 417.5 664.181 417.64 661.591 417.78L662.641 411.795ZM699.916 354.57C699.006 354.57 697.676 355.795 695.926 358.245C694.246 360.625 692.426 363.88 690.466 368.01C688.506 372.07 686.546 376.62 684.586 381.66C686.196 382.5 687.946 383.2 689.836 383.76C691.796 384.25 693.476 384.495 694.876 384.495C696.206 384.495 697.501 383.515 698.761 381.555C700.091 379.595 701.141 377.075 701.911 373.995C702.751 370.915 703.171 367.8 703.171 364.65C703.171 362.83 702.996 361.185 702.646 359.715C702.366 358.175 701.981 356.95 701.491 356.04C701.001 355.06 700.476 354.57 699.916 354.57ZM764.812 394.26C759.492 394.26 754.767 393.14 750.637 390.9C746.577 388.59 743.427 385.335 741.187 381.135C738.947 376.935 737.827 371.965 737.827 366.225C737.827 360.065 738.667 354.43 740.347 349.32C742.097 344.21 744.582 339.8 747.802 336.09C751.022 332.31 754.872 329.44 759.352 327.48C763.832 325.45 768.802 324.435 774.262 324.435C779.792 324.435 784.587 325.555 788.647 327.795C792.777 330.035 795.962 333.22 798.202 337.35C800.512 341.48 801.667 346.415 801.667 352.155C801.667 358.315 800.792 363.985 799.042 369.165C797.292 374.275 794.772 378.72 791.482 382.5C788.262 386.21 784.377 389.115 779.827 391.215C775.347 393.245 770.342 394.26 764.812 394.26ZM767.017 385.545C770.797 385.545 774.087 384.32 776.887 381.87C779.687 379.42 781.857 375.85 783.397 371.16C784.937 366.47 785.707 360.8 785.707 354.15C785.707 349.95 785.147 346.38 784.027 343.44C782.907 340.43 781.297 338.12 779.197 336.51C777.167 334.9 774.682 334.095 771.742 334.095C768.102 334.095 764.882 335.355 762.082 337.875C759.352 340.325 757.217 343.895 755.677 348.585C754.137 353.275 753.367 358.91 753.367 365.49C753.367 369.69 753.927 373.295 755.047 376.305C756.167 379.315 757.742 381.625 759.772 383.235C761.802 384.775 764.217 385.545 767.017 385.545ZM836.893 394.155C833.673 394.155 832.063 392.65 832.063 389.64C832.063 388.52 832.308 386.98 832.798 385.02C833.288 383.06 833.883 380.925 834.583 378.615C835.353 376.235 836.088 373.855 836.788 371.475C837.488 369.095 838.048 366.925 838.468 364.965C838.958 362.935 839.203 361.36 839.203 360.24C839.203 359.05 838.958 358.14 838.468 357.51C837.978 356.81 837.348 356.46 836.578 356.46C835.388 356.46 833.848 357.685 831.958 360.135C830.138 362.585 828.143 365.98 825.973 370.32C823.873 374.59 821.808 379.525 819.778 385.125L821.248 366.645L823.348 367.17C826.288 361.01 829.228 355.9 832.168 351.84C835.108 347.71 837.838 344.875 840.358 343.335C843.788 343.335 846.518 344.315 848.548 346.275C850.648 348.165 851.698 350.685 851.698 353.835C851.698 355.375 851.383 357.37 850.753 359.82C850.123 362.2 849.353 364.755 848.443 367.485C847.603 370.215 846.763 372.84 845.923 375.36C845.153 377.88 844.558 380.015 844.138 381.765L844.453 382.08C844.803 382.08 845.153 381.975 845.503 381.765C845.923 381.485 846.588 380.96 847.498 380.19C848.408 379.42 849.703 378.265 851.383 376.725L853.273 377.04L854.848 380.715C851.838 383.935 849.213 386.525 846.973 388.485C844.803 390.445 842.913 391.88 841.303 392.79C839.763 393.7 838.293 394.155 836.893 394.155ZM809.173 393.84L807.808 392.265C808.438 388.625 809.068 384.88 809.698 381.03C810.328 377.11 810.888 373.4 811.378 369.9C811.938 366.4 812.393 363.39 812.743 360.87C813.093 358.35 813.338 356.67 813.478 355.83C813.548 354.36 813.268 353.275 812.638 352.575C812.078 351.875 811.028 351.525 809.488 351.525H805.918L806.863 345.435C808.963 345.435 811.833 345.365 815.473 345.225C819.183 345.015 822.893 344.805 826.603 344.595L827.758 346.275C827.058 348.305 826.358 350.685 825.658 353.415C824.958 356.145 824.328 358.84 823.768 361.5C823.278 364.16 822.858 366.54 822.508 368.64L821.038 379.665L819.778 390.06C819.708 390.62 819.078 391.215 817.888 391.845C816.768 392.405 815.403 392.86 813.793 393.21C812.253 393.63 810.713 393.84 809.173 393.84ZM896.699 353.205C896.699 356.285 895.824 359.015 894.074 361.395C892.394 363.705 889.699 365.875 885.989 367.905C882.279 369.865 877.344 371.825 871.184 373.785C871.184 377.005 871.779 379.56 872.969 381.45C874.159 383.34 875.804 384.285 877.904 384.285C879.864 384.285 881.754 383.585 883.574 382.185C885.464 380.715 887.109 378.65 888.509 375.99L890.399 376.2L893.654 380.295C892.394 382.955 890.679 385.335 888.509 387.435C886.339 389.535 883.959 391.215 881.369 392.475C878.849 393.665 876.294 394.26 873.704 394.26C869.294 394.26 865.759 392.615 863.099 389.325C860.509 386.035 859.214 381.59 859.214 375.99C859.214 371.72 859.914 367.66 861.314 363.81C862.784 359.89 864.744 356.39 867.194 353.31C869.714 350.23 872.549 347.815 875.699 346.065C878.919 344.245 882.244 343.335 885.674 343.335C889.104 343.335 891.799 344.21 893.759 345.96C895.719 347.64 896.699 350.055 896.699 353.205ZM882.104 352.365C880.494 352.365 878.954 353.03 877.484 354.36C876.084 355.62 874.859 357.405 873.809 359.715C872.829 361.955 872.094 364.545 871.604 367.485C876.434 365.875 879.969 364.16 882.209 362.34C884.449 360.45 885.569 358.385 885.569 356.145C885.569 353.625 884.414 352.365 882.104 352.365ZM947.626 394.68C946.156 386.7 944.826 379.7 943.636 373.68C942.446 367.66 941.396 362.375 940.486 357.825C939.646 353.205 938.841 349.04 938.071 345.33H937.231C935.831 353.24 934.676 359.68 933.766 364.65C932.926 369.55 932.261 373.365 931.771 376.095C931.281 378.825 930.931 380.75 930.721 381.87C930.581 382.92 930.511 383.55 930.511 383.76C930.511 385.58 931.456 386.49 933.346 386.49C933.626 386.49 934.116 386.49 934.816 386.49C935.586 386.42 936.251 386.35 936.811 386.28C936.881 386.42 936.951 386.525 937.021 386.595C937.091 386.665 937.161 386.77 937.231 386.91L935.341 393.42C933.871 393.28 932.331 393.175 930.721 393.105C929.181 393.105 927.746 393.07 926.416 393C925.156 393 924.141 393 923.371 393C922.881 393 922.181 393 921.271 393C920.361 393.07 919.416 393.14 918.436 393.21C917.456 393.35 916.476 393.455 915.496 393.525C914.586 393.595 913.816 393.7 913.186 393.84L914.761 387.12C916.791 386.84 918.296 386.14 919.276 385.02C920.326 383.9 921.166 382.045 921.796 379.455C922.076 377.845 922.496 375.745 923.056 373.155C923.616 370.495 924.246 367.59 924.946 364.44C925.646 361.29 926.311 358.14 926.941 354.99C927.641 351.77 928.271 348.795 928.831 346.065C929.391 343.335 929.811 341.06 930.091 339.24C930.441 337.42 930.616 336.335 930.616 335.985C930.616 334.655 930.091 333.675 929.041 333.045C927.991 332.345 926.171 331.89 923.581 331.68L923.056 331.05L924.631 325.17C927.921 325.31 930.616 325.45 932.716 325.59C934.886 325.66 936.461 325.695 937.441 325.695C938.491 325.695 939.996 325.66 941.956 325.59C943.986 325.45 946.121 325.345 948.361 325.275C948.851 328.845 949.376 332.59 949.936 336.51C950.566 340.43 951.231 344.35 951.931 348.27C952.631 352.19 953.331 356.005 954.031 359.715C954.731 363.355 955.396 366.61 956.026 369.48H956.866C958.336 366.26 960.086 362.27 962.116 357.51C964.146 352.75 966.281 347.605 968.521 342.075C970.831 336.475 973.071 330.945 975.241 325.485C976.291 325.485 977.481 325.52 978.811 325.59C980.211 325.59 981.681 325.625 983.221 325.695C984.761 325.695 986.196 325.695 987.526 325.695C988.926 325.625 990.641 325.555 992.671 325.485C994.771 325.345 996.486 325.205 997.816 325.065C997.886 325.135 997.956 325.205 998.026 325.275C998.166 325.345 998.236 325.415 998.236 325.485L996.871 331.575C993.931 331.855 991.901 332.38 990.781 333.15C989.661 333.92 988.996 335.285 988.786 337.245C988.716 338.295 988.576 339.94 988.366 342.18C988.226 344.35 988.086 346.905 987.946 349.845C987.806 352.715 987.666 355.76 987.526 358.98C987.386 362.2 987.246 365.35 987.106 368.43C987.036 371.51 986.931 374.275 986.791 376.725C986.721 380.505 986.931 383.06 987.421 384.39C987.911 385.72 988.926 386.385 990.466 386.385C990.816 386.385 991.236 386.385 991.726 386.385C992.286 386.315 992.846 386.245 993.406 386.175C993.476 386.315 993.546 386.42 993.616 386.49C993.686 386.56 993.721 386.665 993.721 386.805L992.041 393.315C990.781 393.245 989.136 393.175 987.106 393.105C985.146 393.035 983.396 393 981.856 393C981.086 393 980.036 393 978.706 393C977.446 393.07 976.081 393.14 974.611 393.21C973.141 393.35 971.741 393.455 970.411 393.525C969.081 393.595 967.961 393.7 967.051 393.84L968.626 387.015C970.656 386.805 972.161 386.315 973.141 385.545C974.121 384.705 974.716 383.48 974.926 381.87C974.996 381.1 975.101 379.525 975.241 377.145C975.451 374.765 975.661 371.86 975.871 368.43C976.151 364.93 976.396 361.185 976.606 357.195C976.886 353.205 977.131 349.25 977.341 345.33H976.501C975.591 347.22 974.471 349.635 973.141 352.575C971.881 355.445 970.376 358.875 968.626 362.865C966.876 366.785 964.846 371.335 962.536 376.515C960.296 381.625 957.741 387.4 954.871 393.84L947.626 394.68ZM1014.71 394.26C1010.16 394.26 1006.52 392.615 1003.79 389.325C1001.13 385.965 999.8 381.38 999.8 375.57C999.8 371.02 1000.43 366.82 1001.69 362.97C1003.02 359.05 1004.84 355.62 1007.15 352.68C1009.53 349.74 1012.29 347.465 1015.44 345.855C1018.59 344.175 1022.02 343.335 1025.73 343.335C1030.49 343.335 1034.17 344.875 1036.76 347.955C1039.42 350.965 1040.75 355.27 1040.75 360.87C1040.75 365.56 1040.08 369.935 1038.75 373.995C1037.49 378.055 1035.67 381.625 1033.29 384.705C1030.98 387.715 1028.25 390.06 1025.1 391.74C1021.95 393.42 1018.49 394.26 1014.71 394.26ZM1018.91 386.07C1020.8 386.07 1022.41 385.3 1023.74 383.76C1025.07 382.22 1026.08 379.945 1026.78 376.935C1027.55 373.855 1027.94 370.11 1027.94 365.7C1027.94 361.36 1027.38 358.07 1026.26 355.83C1025.21 353.59 1023.6 352.47 1021.43 352.47C1019.61 352.47 1018 353.205 1016.6 354.675C1015.27 356.145 1014.22 358.28 1013.45 361.08C1012.75 363.81 1012.4 367.17 1012.4 371.16C1012.4 375.99 1012.96 379.7 1014.08 382.29C1015.27 384.81 1016.88 386.07 1018.91 386.07ZM1048.46 392.265C1048.46 392.265 1048.6 391.495 1048.88 389.955C1049.16 388.345 1049.51 386.28 1049.93 383.76C1050.35 381.17 1050.8 378.405 1051.29 375.465C1051.78 372.525 1052.24 369.69 1052.66 366.96C1053.08 364.16 1053.43 361.745 1053.71 359.715C1053.99 357.615 1054.13 356.215 1054.13 355.515C1054.13 354.115 1053.81 353.1 1053.18 352.47C1052.62 351.84 1051.61 351.525 1050.14 351.525H1046.46L1047.41 345.435C1049.3 345.435 1051.36 345.4 1053.6 345.33C1055.91 345.19 1058.08 345.085 1060.11 345.015C1062.21 344.875 1063.93 344.77 1065.26 344.7C1066.59 344.63 1067.25 344.595 1067.25 344.595L1068.51 346.275C1068.51 346.275 1068.23 347.185 1067.67 349.005C1067.18 350.755 1066.59 353.03 1065.89 355.83C1065.19 358.56 1064.56 361.395 1064 364.335H1064.63C1066.45 360.275 1068.41 356.74 1070.51 353.73C1072.61 350.65 1074.71 348.235 1076.81 346.485C1078.98 344.665 1081.04 343.72 1083 343.65C1083.63 344 1084.19 344.665 1084.68 345.645C1085.24 346.625 1085.59 347.605 1085.73 348.585C1085.59 350.055 1085.35 351.595 1085 353.205C1084.72 354.815 1084.37 356.32 1083.95 357.72C1083.6 359.12 1083.28 360.275 1083 361.185C1082.72 362.025 1082.58 362.445 1082.58 362.445L1078.59 362.655C1078.66 361.325 1078.52 360.38 1078.17 359.82C1077.82 359.26 1077.33 358.98 1076.7 358.98C1074.67 358.98 1072.29 360.87 1069.56 364.65C1066.9 368.36 1064.28 373.47 1061.69 379.98L1060.43 390.06C1060.36 390.62 1059.73 391.215 1058.54 391.845C1057.42 392.405 1056.05 392.86 1054.44 393.21C1052.9 393.63 1051.36 393.84 1049.82 393.84L1048.46 392.265ZM1122.18 353.205C1122.18 356.285 1121.31 359.015 1119.56 361.395C1117.88 363.705 1115.18 365.875 1111.47 367.905C1107.76 369.865 1102.83 371.825 1096.67 373.785C1096.67 377.005 1097.26 379.56 1098.45 381.45C1099.64 383.34 1101.29 384.285 1103.39 384.285C1105.35 384.285 1107.24 383.585 1109.06 382.185C1110.95 380.715 1112.59 378.65 1113.99 375.99L1115.88 376.2L1119.14 380.295C1117.88 382.955 1116.16 385.335 1113.99 387.435C1111.82 389.535 1109.44 391.215 1106.85 392.475C1104.33 393.665 1101.78 394.26 1099.19 394.26C1094.78 394.26 1091.24 392.615 1088.58 389.325C1085.99 386.035 1084.7 381.59 1084.7 375.99C1084.7 371.72 1085.4 367.66 1086.8 363.81C1088.27 359.89 1090.23 356.39 1092.68 353.31C1095.2 350.23 1098.03 347.815 1101.18 346.065C1104.4 344.245 1107.73 343.335 1111.16 343.335C1114.59 343.335 1117.28 344.21 1119.24 345.96C1121.2 347.64 1122.18 350.055 1122.18 353.205ZM1107.59 352.365C1105.98 352.365 1104.44 353.03 1102.97 354.36C1101.57 355.62 1100.34 357.405 1099.29 359.715C1098.31 361.955 1097.58 364.545 1097.09 367.485C1101.92 365.875 1105.45 364.16 1107.69 362.34C1109.93 360.45 1111.05 358.385 1111.05 356.145C1111.05 353.625 1109.9 352.365 1107.59 352.365Z" fill="#184A56"/>
<path d="M1147.4 390H1146.4L1143.9 369.1H1143.7L1133.55 390H1132.25L1129.5 367.5L1130.6 367.25L1130.8 369.55L1133.1 388.5H1133.3L1142.4 369.55L1143.45 367.4H1144.65L1144.85 369.55L1147.15 388.5H1147.35L1154.2 376.6C1155.47 374.4 1156.1 372.633 1156.1 371.3C1156.1 370.233 1155.63 369.067 1154.7 367.8L1154.75 367.55L1155.65 367.25C1156.62 368.617 1157.1 369.983 1157.1 371.35C1157.1 372.883 1156.42 374.8 1155.05 377.1L1147.4 390ZM1162.71 384.7L1162.36 390L1161.01 390.2L1163.46 371.9L1163.76 367.4L1165.01 367.2L1162.71 384.7ZM1165.41 358.45C1165.71 358.45 1165.94 358.55 1166.11 358.75C1166.31 358.917 1166.41 359.15 1166.41 359.45C1166.41 359.75 1166.31 360 1166.11 360.2C1165.94 360.367 1165.71 360.45 1165.41 360.45C1165.11 360.45 1164.86 360.367 1164.66 360.2C1164.49 360 1164.41 359.75 1164.41 359.45C1164.41 359.15 1164.49 358.917 1164.66 358.75C1164.86 358.55 1165.11 358.45 1165.41 358.45ZM1173.42 385.65L1173.32 386.65C1173.32 387.483 1173.48 388.133 1173.82 388.6C1174.18 389.033 1174.68 389.25 1175.32 389.25C1176.02 389.25 1176.82 388.783 1177.72 387.85C1178.65 386.917 1179.57 385.633 1180.47 384H1180.82L1181.27 384.6C1180.07 386.567 1179.05 387.95 1178.22 388.75C1177.42 389.517 1176.52 390.017 1175.52 390.25C1174.48 390.25 1173.68 389.967 1173.12 389.4C1172.58 388.8 1172.32 387.933 1172.32 386.8L1172.42 385.7L1174.77 371.9L1175.27 368.55H1171.72L1171.52 368.35L1171.67 367.55H1175.42L1176.37 361L1177.47 360.5L1177.62 360.65L1176.47 367.55H1183.67L1183.82 367.75L1183.67 368.55H1176.27L1173.42 385.65ZM1200.69 366.9C1201.49 367.133 1202.12 367.65 1202.59 368.45C1203.05 369.217 1203.27 370.117 1203.24 371.15L1203.19 371.8L1201.04 384.95L1200.44 390L1199.19 390.2L1202.14 371.95L1202.19 371.2C1202.22 370.367 1202.05 369.667 1201.69 369.1C1201.32 368.5 1200.92 368.2 1200.49 368.2C1199.62 368.2 1198.12 369.617 1195.99 372.45C1193.85 375.283 1191.47 379.133 1188.84 384L1188.74 384.7L1188.29 390L1186.99 390.2L1191.09 359.6L1191.39 355.1L1192.69 354.9L1189.24 380.8H1189.49C1191.62 377.1 1193.52 374.133 1195.19 371.9C1196.85 369.633 1198.5 367.967 1200.14 366.9H1200.69ZM1233.91 367.2L1231.61 384.7L1231.16 390L1229.91 390.2L1231.71 376.65H1231.46C1229.29 380.383 1227.37 383.367 1225.71 385.6C1224.07 387.833 1222.44 389.483 1220.81 390.55H1220.26C1219.46 390.317 1218.82 389.817 1218.36 389.05C1217.89 388.25 1217.67 387.333 1217.71 386.3L1217.76 385.65L1219.91 372.5L1220.51 367.45L1221.76 367.25L1218.81 385.5L1218.76 386.25C1218.72 387.083 1218.89 387.8 1219.26 388.4C1219.62 388.967 1220.02 389.25 1220.46 389.25C1221.32 389.25 1222.82 387.833 1224.96 385C1227.12 382.167 1229.51 378.333 1232.11 373.5L1232.31 371.9L1232.66 367.4L1233.91 367.2ZM1247.36 367.25C1248.76 367.383 1249.96 367.717 1250.96 368.25L1250.61 369.2L1250.31 369.25C1249.18 368.583 1248.03 368.25 1246.86 368.25C1245.83 368.25 1244.88 368.483 1244.01 368.95C1243.18 369.417 1242.51 370.033 1242.01 370.8C1241.55 371.533 1241.31 372.3 1241.31 373.1C1241.31 374.033 1241.61 374.85 1242.21 375.55C1242.81 376.217 1243.75 377.033 1245.01 378C1246.45 379.067 1247.51 380.017 1248.21 380.85C1248.91 381.683 1249.26 382.733 1249.26 384C1249.26 385.133 1248.95 386.183 1248.31 387.15C1247.71 388.083 1246.85 388.85 1245.71 389.45C1244.58 390.017 1243.28 390.3 1241.81 390.3C1240.21 390.067 1238.78 389.5 1237.51 388.6L1237.66 387.7L1238.01 387.5C1239.38 388.667 1240.85 389.25 1242.41 389.25C1244.08 389.25 1245.46 388.75 1246.56 387.75C1247.66 386.75 1248.21 385.55 1248.21 384.15C1248.21 383.05 1247.88 382.133 1247.21 381.4C1246.58 380.633 1245.61 379.767 1244.31 378.8C1243.01 377.833 1242.01 376.95 1241.31 376.15C1240.65 375.35 1240.31 374.367 1240.31 373.2C1240.31 371.5 1240.98 370.083 1242.31 368.95C1243.68 367.783 1245.36 367.217 1247.36 367.25Z" fill="#BFBEBE"/>
<path d="M347.25 358.15L344.5 380.25L343.25 390H342.25L343.5 380.25L344.25 374.3H325L324.25 380.25L323 390H322L323.25 380.25L326 358.15H327L325.1 373.3H344.35L346.25 358.15H347.25ZM363.255 384.1L363.705 384.75C362.705 386.417 361.621 387.7 360.455 388.6C359.321 389.5 357.988 390.05 356.455 390.25H356.005C354.371 390.05 353.188 389.367 352.455 388.2C351.755 387 351.405 385.217 351.405 382.85C351.405 379.917 351.821 377.267 352.655 374.9C353.521 372.533 354.705 370.667 356.205 369.3C357.705 367.9 359.355 367.183 361.155 367.15H361.405C363.905 367.35 365.155 368.5 365.155 370.6C365.155 372.5 364.088 374.35 361.955 376.15C359.821 377.95 356.655 379.633 352.455 381.2C352.421 381.5 352.405 381.967 352.405 382.6C352.405 384.867 352.721 386.533 353.355 387.6C354.021 388.667 355.021 389.2 356.355 389.2C357.588 389.2 358.755 388.767 359.855 387.9C360.988 387 362.005 385.733 362.905 384.1H363.255ZM361.255 368.2C359.821 368.2 358.471 368.717 357.205 369.75C355.971 370.75 354.938 372.15 354.105 373.95C353.305 375.75 352.788 377.8 352.555 380.1C356.255 378.733 359.105 377.233 361.105 375.6C363.105 373.967 364.105 372.35 364.105 370.75C364.105 369.983 363.855 369.367 363.355 368.9C362.888 368.433 362.188 368.2 361.255 368.2ZM372.33 384.7L371.88 390L370.58 390.2L374.68 359.6L374.98 355.1L376.28 354.9L372.33 384.7ZM394.895 367.3C395.828 368.033 396.495 368.9 396.895 369.9C397.295 370.9 397.495 372.317 397.495 374.15C397.495 377.017 397.045 379.65 396.145 382.05C395.245 384.417 393.911 386.333 392.145 387.8C390.411 389.267 388.345 390.067 385.945 390.2H385.745L382.845 389.5L382.295 393.95L381.845 399.25L380.595 399.45L384.145 371.9L384.445 367.4L385.695 367.2L383.945 381.05H384.145C385.645 378.25 387.278 375.667 389.045 373.3C390.811 370.9 392.578 368.9 394.345 367.3H394.895ZM385.895 389.2C388.028 389.2 389.895 388.517 391.495 387.15C393.095 385.783 394.328 383.967 395.195 381.7C396.061 379.433 396.495 377 396.495 374.4C396.495 373.067 396.378 371.983 396.145 371.15C395.945 370.283 395.678 369.667 395.345 369.3C395.045 368.9 394.778 368.7 394.545 368.7C394.278 368.7 393.545 369.367 392.345 370.7C391.145 372 389.745 373.817 388.145 376.15C386.578 378.45 385.045 381.067 383.545 384L382.995 388.45L385.895 389.2ZM413.095 385.65L412.995 386.65C412.995 387.483 413.162 388.133 413.495 388.6C413.862 389.033 414.362 389.25 414.995 389.25C415.695 389.25 416.495 388.783 417.395 387.85C418.328 386.917 419.245 385.633 420.145 384H420.495L420.945 384.6C419.745 386.567 418.728 387.95 417.895 388.75C417.095 389.517 416.195 390.017 415.195 390.25C414.162 390.25 413.362 389.967 412.795 389.4C412.262 388.8 411.995 387.933 411.995 386.8L412.095 385.7L414.445 371.9L414.945 368.55H411.395L411.195 368.35L411.345 367.55H415.095L416.045 361L417.145 360.5L417.295 360.65L416.145 367.55H423.345L423.495 367.75L423.345 368.55H415.945L413.095 385.65ZM440.638 367.2L438.338 384.7L437.888 390L436.638 390.2L438.438 376.45H438.238C436.738 379.283 435.121 381.883 433.388 384.25C431.654 386.617 429.904 388.6 428.138 390.2H427.588C426.688 389.533 426.021 388.667 425.588 387.6C425.188 386.533 424.988 385.05 424.988 383.15C424.988 380.317 425.421 377.717 426.288 375.35C427.188 372.983 428.488 371.067 430.188 369.6C431.921 368.133 433.971 367.317 436.338 367.15H436.538L439.788 367.4L440.388 367.05L440.638 367.2ZM427.988 388.8C428.254 388.8 428.971 388.133 430.138 386.8C431.338 385.467 432.721 383.633 434.288 381.3C435.854 378.967 437.371 376.317 438.838 373.35L439.038 371.9L439.388 368.4L436.438 368.15C434.338 368.183 432.488 368.9 430.888 370.3C429.321 371.667 428.104 373.483 427.238 375.75C426.404 377.983 425.987 380.383 425.987 382.95C425.987 384.317 426.104 385.433 426.338 386.3C426.571 387.167 426.838 387.8 427.138 388.2C427.471 388.6 427.754 388.8 427.988 388.8ZM449.381 384.7L448.931 390L447.631 390.2L451.731 359.6L452.031 355.1L453.331 354.9L449.381 384.7ZM469.895 384.1L470.345 384.75C469.345 386.417 468.262 387.7 467.095 388.6C465.962 389.5 464.629 390.05 463.095 390.25H462.645C461.012 390.05 459.829 389.367 459.095 388.2C458.395 387 458.045 385.217 458.045 382.85C458.045 379.917 458.462 377.267 459.295 374.9C460.162 372.533 461.345 370.667 462.845 369.3C464.345 367.9 465.995 367.183 467.795 367.15H468.045C470.545 367.35 471.795 368.5 471.795 370.6C471.795 372.5 470.729 374.35 468.595 376.15C466.462 377.95 463.295 379.633 459.095 381.2C459.062 381.5 459.045 381.967 459.045 382.6C459.045 384.867 459.362 386.533 459.995 387.6C460.662 388.667 461.662 389.2 462.995 389.2C464.229 389.2 465.395 388.767 466.495 387.9C467.629 387 468.645 385.733 469.545 384.1H469.895ZM467.895 368.2C466.462 368.2 465.112 368.717 463.845 369.75C462.612 370.75 461.579 372.15 460.745 373.95C459.945 375.75 459.429 377.8 459.195 380.1C462.895 378.733 465.745 377.233 467.745 375.6C469.745 373.967 470.745 372.35 470.745 370.75C470.745 369.983 470.495 369.367 469.995 368.9C469.529 368.433 468.829 368.2 467.895 368.2ZM490.071 366.9C490.871 367.133 491.504 367.65 491.971 368.45C492.438 369.217 492.654 370.117 492.621 371.15L492.571 371.8L490.421 384.95L489.821 390L488.571 390.2L491.521 371.95L491.571 371.2C491.604 370.367 491.438 369.667 491.071 369.1C490.704 368.5 490.304 368.2 489.871 368.2C489.004 368.2 487.504 369.617 485.371 372.45C483.238 375.283 480.854 379.133 478.221 384L478.121 384.7L477.671 390L476.421 390.2L478.821 371.9L479.171 367.4L480.421 367.2L478.621 380.8H478.871C481.038 377.067 482.938 374.083 484.571 371.85C486.238 369.617 487.888 367.967 489.521 366.9H490.071ZM500.937 385.65L500.837 386.65C500.837 387.483 501.003 388.133 501.337 388.6C501.703 389.033 502.203 389.25 502.837 389.25C503.537 389.25 504.337 388.783 505.237 387.85C506.17 386.917 507.087 385.633 507.987 384H508.337L508.787 384.6C507.587 386.567 506.57 387.95 505.737 388.75C504.937 389.517 504.037 390.017 503.037 390.25C502.003 390.25 501.203 389.967 500.637 389.4C500.103 388.8 499.837 387.933 499.837 386.8L499.937 385.7L502.287 371.9L502.787 368.55H499.237L499.037 368.35L499.187 367.55H502.937L503.887 361L504.987 360.5L505.137 360.65L503.987 367.55H511.187L511.337 367.75L511.187 368.55H503.787L500.937 385.65ZM521.807 367.25C523.207 367.383 524.407 367.717 525.407 368.25L525.057 369.2L524.757 369.25C523.624 368.583 522.474 368.25 521.307 368.25C520.274 368.25 519.324 368.483 518.457 368.95C517.624 369.417 516.957 370.033 516.457 370.8C515.99 371.533 515.757 372.3 515.757 373.1C515.757 374.033 516.057 374.85 516.657 375.55C517.257 376.217 518.19 377.033 519.457 378C520.89 379.067 521.957 380.017 522.657 380.85C523.357 381.683 523.707 382.733 523.707 384C523.707 385.133 523.39 386.183 522.757 387.15C522.157 388.083 521.29 388.85 520.157 389.45C519.024 390.017 517.724 390.3 516.257 390.3C514.657 390.067 513.224 389.5 511.957 388.6L512.107 387.7L512.457 387.5C513.824 388.667 515.29 389.25 516.857 389.25C518.524 389.25 519.907 388.75 521.007 387.75C522.107 386.75 522.657 385.55 522.657 384.15C522.657 383.05 522.324 382.133 521.657 381.4C521.024 380.633 520.057 379.767 518.757 378.8C517.457 377.833 516.457 376.95 515.757 376.15C515.09 375.35 514.757 374.367 514.757 373.2C514.757 371.5 515.424 370.083 516.757 368.95C518.124 367.783 519.807 367.217 521.807 367.25Z" fill="#BFBEBE"/>
<g clip-path="url(#clip1_389_1245)">
<mask id="mask0_389_1245" style="mask-type:luminance" maskUnits="userSpaceOnUse" x="-1" y="132" width="321" height="321">
<path d="M320 132H-1V453H320V132Z" fill="white"/>
</mask>
<g mask="url(#mask0_389_1245)">
<path d="M299.478 435.178L297.844 439.62" stroke="#CCDDE2" stroke-width="1.18449" stroke-miterlimit="10"/>
<path d="M294.345 449.142L282.529 481.267" stroke="#CCDDE2" stroke-width="1.18449" stroke-miterlimit="10" stroke-dasharray="9.3 10.14 10.14 9.3"/>
<path d="M296.416 407.473L294.798 411.922" stroke="#CCDDE2" stroke-width="1.18449" stroke-miterlimit="10"/>
<path d="M291.52 420.945L280.462 451.395" stroke="#CCDDE2" stroke-width="1.18449" stroke-miterlimit="10" stroke-dasharray="8.8 9.6 9.6 8.8"/>
<path d="M296.839 374.534L295.225 378.983" stroke="#CCDDE2" stroke-width="1.18449" stroke-miterlimit="10"/>
<path d="M291.889 388.196L280.622 419.282" stroke="#CCDDE2" stroke-width="1.18449" stroke-miterlimit="10" stroke-dasharray="8.98 9.8 9.8 8.98"/>
<path d="M279.091 423.507L163.788 741.675" stroke="#CCDDE2" stroke-width="1.18449" stroke-miterlimit="10" stroke-dasharray="9.8 9.8 8.98 9.8 9.8 8.98"/>
<path d="M293.774 346.826L292.156 351.275" stroke="#CCDDE2" stroke-width="1.18449" stroke-miterlimit="10"/>
<path d="M289.036 359.836L278.511 388.732" stroke="#CCDDE2" stroke-width="1.18449" stroke-miterlimit="10" stroke-dasharray="8.35 9.11 9.11 8.35"/>
<path d="M277.082 392.655L169.364 688.389" stroke="#CCDDE2" stroke-width="1.18449" stroke-miterlimit="10" stroke-dasharray="9.11 9.11 8.35 9.11 9.11 8.35"/>
<path d="M249.666 428.206L248.038 432.652" stroke="#CCDDE2" stroke-width="1.18449" stroke-miterlimit="10"/>
<path d="M244.879 441.287L234.222 470.433" stroke="#CCDDE2" stroke-width="1.18449" stroke-miterlimit="10" stroke-dasharray="8.43 9.19 9.19 8.43"/>
<path d="M246.6 400.5L244.973 404.946" stroke="#CCDDE2" stroke-width="1.18449" stroke-miterlimit="10"/>
<path d="M241.701 413.871L230.662 443.987" stroke="#CCDDE2" stroke-width="1.18449" stroke-miterlimit="10" stroke-dasharray="8.71 9.5 9.5 8.71"/>
<path d="M229.163 448.08L154.354 652.216" stroke="#CCDDE2" stroke-width="1.18449" stroke-miterlimit="10" stroke-dasharray="9.5 9.5 8.71 9.5 9.5 8.71"/>
<path d="M243.537 372.795L241.903 377.238" stroke="#CCDDE2" stroke-width="1.18449" stroke-miterlimit="10"/>
<path d="M238.401 386.755L226.585 418.881" stroke="#CCDDE2" stroke-width="1.18449" stroke-miterlimit="10" stroke-dasharray="9.3 10.14 10.14 9.3"/>
<path d="M224.98 423.243L165.322 585.457" stroke="#CCDDE2" stroke-width="1.18449" stroke-miterlimit="10" stroke-dasharray="10.14 10.14 9.3 10.14 10.14 9.3"/>
<path d="M240.472 345.086L238.857 349.535" stroke="#CCDDE2" stroke-width="1.18449" stroke-miterlimit="10"/>
<path d="M235.579 358.559L224.518 389.009" stroke="#CCDDE2" stroke-width="1.18449" stroke-miterlimit="10" stroke-dasharray="8.8 9.6 9.6 8.8"/>
<path d="M223.019 393.146L128.94 652.164" stroke="#CCDDE2" stroke-width="1.18449" stroke-miterlimit="10" stroke-dasharray="9.6 9.6 8.8 9.6 9.6 8.8"/>
<path d="M237.41 317.381L235.795 321.833" stroke="#CCDDE2" stroke-width="1.18449" stroke-miterlimit="10"/>
<path d="M232.456 331.042L221.192 362.131" stroke="#CCDDE2" stroke-width="1.18449" stroke-miterlimit="10" stroke-dasharray="8.98 9.8 9.8 8.98"/>
<path d="M219.661 366.353L104.354 684.525" stroke="#CCDDE2" stroke-width="1.18449" stroke-miterlimit="10" stroke-dasharray="9.8 9.8 8.98 9.8 9.8 8.98"/>
<path d="M234.344 289.675L232.723 294.121" stroke="#CCDDE2" stroke-width="1.18449" stroke-miterlimit="10"/>
<path d="M229.606 302.686L219.08 331.579" stroke="#CCDDE2" stroke-width="1.18449" stroke-miterlimit="10" stroke-dasharray="8.35 9.11 9.11 8.35"/>
<path d="M217.652 335.504L109.931 631.235" stroke="#CCDDE2" stroke-width="1.18449" stroke-miterlimit="10" stroke-dasharray="9.11 9.11 8.35 9.11 9.11 8.35"/>
<path d="M173.791 418.104L172.163 422.549" stroke="#CCDDE2" stroke-width="1.18449" stroke-miterlimit="10"/>
<path d="M169.004 431.188L158.347 460.332" stroke="#CCDDE2" stroke-width="1.18449" stroke-miterlimit="10" stroke-dasharray="8.43 9.19 9.19 8.43"/>
<path d="M170.725 390.398L169.098 394.845" stroke="#CCDDE2" stroke-width="1.18449" stroke-miterlimit="10"/>
<path d="M165.826 403.768L154.79 433.887" stroke="#CCDDE2" stroke-width="1.18449" stroke-miterlimit="10" stroke-dasharray="8.71 9.5 9.5 8.71"/>
<path d="M153.292 437.977L78.4795 642.114" stroke="#CCDDE2" stroke-width="1.18449" stroke-miterlimit="10" stroke-dasharray="9.5 9.5 8.71 9.5 9.5 8.71"/>
<path d="M167.662 362.693L166.028 367.136" stroke="#CCDDE2" stroke-width="1.18449" stroke-miterlimit="10"/>
<path d="M162.527 376.653L150.711 408.779" stroke="#CCDDE2" stroke-width="1.18449" stroke-miterlimit="10" stroke-dasharray="9.3 10.14 10.14 9.3"/>
<path d="M149.108 413.142L89.4473 575.355" stroke="#CCDDE2" stroke-width="1.18449" stroke-miterlimit="10" stroke-dasharray="10.14 10.14 9.3 10.14 10.14 9.3"/>
<path d="M164.597 334.985L162.982 339.438" stroke="#CCDDE2" stroke-width="1.18449" stroke-miterlimit="10"/>
<path d="M159.705 348.457L148.646 378.91" stroke="#CCDDE2" stroke-width="1.18449" stroke-miterlimit="10" stroke-dasharray="8.8 9.6 9.6 8.8"/>
<path d="M147.144 383.044L53.0654 642.062" stroke="#CCDDE2" stroke-width="1.18449" stroke-miterlimit="10" stroke-dasharray="9.6 9.6 8.8 9.6 9.6 8.8"/>
<path d="M161.535 307.278L159.92 311.731" stroke="#CCDDE2" stroke-width="1.18449" stroke-miterlimit="10"/>
<path d="M156.581 320.941L145.317 352.03" stroke="#CCDDE2" stroke-width="1.18449" stroke-miterlimit="10" stroke-dasharray="8.98 9.8 9.8 8.98"/>
<path d="M143.787 356.251L28.4834 674.422" stroke="#CCDDE2" stroke-width="1.18449" stroke-miterlimit="10" stroke-dasharray="9.8 9.8 8.98 9.8 9.8 8.98"/>
<path d="M158.469 279.573L156.852 284.019" stroke="#CCDDE2" stroke-width="1.18449" stroke-miterlimit="10"/>
<path d="M153.731 292.584L143.205 321.477" stroke="#CCDDE2" stroke-width="1.18449" stroke-miterlimit="10" stroke-dasharray="8.35 9.11 9.11 8.35"/>
<path d="M141.777 325.402L34.0557 621.133" stroke="#CCDDE2" stroke-width="1.18449" stroke-miterlimit="10" stroke-dasharray="9.11 9.11 8.35 9.11 9.11 8.35"/>
<path d="M156.408 266.133C156.408 266.133 171.604 248.799 202.928 263.835C230.44 277.038 237.73 303.433 237.73 303.433" stroke="#CCDDE2" stroke-width="1.6692" stroke-miterlimit="10"/>
<path d="M273.282 402.972L273.462 402.872C274.522 402.227 275.494 401.444 276.351 400.545C277.469 400.983 278.658 401.213 279.859 401.226C281.178 401.244 282.487 401.002 283.712 400.514C284.937 400.027 286.054 399.302 287 398.382C287.945 397.463 288.7 396.366 289.221 395.155C289.742 393.943 290.02 392.641 290.038 391.323C290.043 390.628 289.98 389.934 289.849 389.252C293.789 388.744 297.405 386.806 300.009 383.806C302.613 380.806 304.025 376.953 303.974 372.981C303.923 369.008 302.414 365.193 299.734 362.26C297.054 359.328 293.389 357.482 289.438 357.075V357.011C289.527 355.16 289.243 353.31 288.602 351.571C287.961 349.832 286.977 348.24 285.707 346.89C284.438 345.54 282.909 344.46 281.213 343.713C279.517 342.966 277.688 342.568 275.835 342.543C273.982 342.519 272.143 342.867 270.428 343.568C268.713 344.27 267.156 345.309 265.851 346.625C264.546 347.94 263.519 349.505 262.832 351.226C262.145 352.947 261.811 354.789 261.851 356.642C261.851 356.799 261.851 356.963 261.851 357.111C260.672 356.826 259.465 356.673 258.253 356.655C255.261 356.613 252.316 357.401 249.745 358.931C247.174 360.46 245.076 362.672 243.686 365.322M246.539 384.264C248.418 386.152 250.733 387.547 253.28 388.328C252.863 390.21 252.851 392.16 253.247 394.047C253.642 395.935 254.436 397.716 255.574 399.272C256.712 400.829 258.169 402.125 259.848 403.074C261.526 404.023 263.388 404.603 265.308 404.776L246.539 384.264Z" stroke="#CCDDE2" stroke-width="1.6692" stroke-miterlimit="10"/>
<path d="M276.873 378.425C277.798 382.996 279.948 385.651 282.231 387.185" stroke="#CCDDE2" stroke-width="1.6692" stroke-miterlimit="10"/>
<path d="M289.826 389.247C289.245 389.287 288.662 389.277 288.083 389.218" stroke="#CCDDE2" stroke-width="1.6692" stroke-miterlimit="10"/>
<path d="M261.835 357.097C261.835 357.097 261.632 364.358 268.521 367.253" stroke="#CCDDE2" stroke-width="1.6692" stroke-miterlimit="10"/>
<path d="M281.479 393.149C281.479 393.149 264.274 390.363 279.598 437.819" stroke="#CCDDE2" stroke-width="1.6692" stroke-miterlimit="10"/>
<path d="M259.8 389.919C259.8 389.919 274.004 397.389 256.734 437.514" stroke="#CCDDE2" stroke-width="1.6692" stroke-miterlimit="10"/>
<path d="M153.712 268.973L153.725 268.964" stroke="#CCDDE2" stroke-width="1.6692" stroke-miterlimit="10"/>
<path d="M108.698 295.113C114.556 295.392 120.235 294.757 125.515 291.727C129.024 289.723 133.338 287.306 136.734 284.212" stroke="#CCDDE2" stroke-width="1.6692" stroke-miterlimit="10"/>
<path d="M51.1207 346.61C53.8492 353.403 57.3802 359.983 60.3879 366.288C62.0122 369.719 63.5819 373.35 63.5979 377.247C63.6333 383.272 59.8134 388.661 55.1556 391.669C48.3761 396.044 40.2998 395.643 33.5973 400.278C27.3089 404.609 24.0379 410.2 23.0332 416.47" stroke="#CCDDE2" stroke-width="1.6692" stroke-miterlimit="10"/>
<path d="M81.5352 292.908C81.792 292.886 82.0359 292.863 82.2927 292.854" stroke="#CCDDE2" stroke-width="1.6692" stroke-miterlimit="10"/>
<path d="M246.308 438.054C246.308 438.054 249.701 434.147 249.701 425.348C249.701 416.55 244.44 412.646 244.44 412.646C250.144 425.194 238.38 438.054 238.38 438.054C235.895 435.08 234.459 431.371 234.293 427.499C234.293 427.499 231.083 433.03 233.757 438.054" stroke="#CCDDE2" stroke-width="1.6692" stroke-linejoin="round"/>
<path d="M20.9979 438.054C20.9979 438.054 15.0498 431.194 15.0498 415.764C15.0498 400.333 24.285 393.454 24.285 393.454C14.2666 415.488 34.9261 438.073 34.9261 438.073C35.5681 437.226 41.5002 430.857 42.1262 419.539C42.1262 419.539 47.7629 429.252 43.0667 438.073" stroke="#CCDDE2" stroke-width="1.6692" stroke-linejoin="round"/>
<path d="M255.479 311.997L255.511 312.064" stroke="#CCDDE2" stroke-width="1.6692" stroke-miterlimit="10"/>
<path d="M216.063 438.134H190.101V437.701C190.606 437.456 191.046 437.094 191.383 436.644C191.719 436.194 191.943 435.67 192.035 435.116C192.127 434.562 192.084 433.993 191.911 433.459C191.737 432.925 191.438 432.44 191.038 432.045C190.766 431.77 190.449 431.543 190.101 431.374V430.995H214.246C221.141 430.976 219.825 432.222 221.074 434.616C222.323 437.011 216.063 438.134 216.063 438.134Z" fill="#3FBDF1"/>
<path d="M69.2985 436.822C68.2071 437.714 66.5154 438.134 66.5154 438.134H52.4717V411.129L59.8354 407.887C59.9012 407.868 59.9648 407.842 60.0248 407.81L60.2688 407.697V430.995H65.6134C66.2471 430.998 66.8798 431.043 67.5073 431.13C68.9326 431.365 69.321 431.888 69.5553 432.7C69.5553 432.7 69.5778 432.7 69.5553 432.722C69.7126 433.246 69.8121 433.872 70.0817 434.616C70.4477 435.541 69.9919 436.276 69.2985 436.822Z" fill="#3FBDF1"/>
<path d="M15.7656 438.137H281.159" stroke="black" stroke-width="1.6692" stroke-miterlimit="10"/>
<path d="M157.525 389.982L149.619 413.992C148.626 416.712 146.82 419.06 144.448 420.719C142.076 422.379 139.25 423.269 136.355 423.269H60.2238L60.2688 427.144V427.535L60.3137 430.996V431.018L65.2346 430.996H66.5186C66.8541 430.994 67.1879 431.039 67.5105 431.131C68.366 431.378 69.0969 431.939 69.5585 432.7C69.5585 432.7 69.581 432.7 69.5585 432.723C69.9036 433.274 70.0862 433.911 70.0849 434.562V434.617C70.0824 435.083 69.988 435.545 69.8066 435.975C69.6256 436.405 69.3614 436.796 69.0292 437.124C68.6973 437.451 68.3034 437.711 67.871 437.886C67.4386 438.062 66.9757 438.151 66.509 438.148H52.4717V411.129C54.9925 409.971 57.4472 408.89 59.8354 407.887C59.9012 407.868 59.9648 407.842 60.0248 407.81L60.2688 407.71C96.2625 392.733 118.649 394.578 118.649 394.578L131.791 352.091" stroke="black" stroke-width="1.6692" stroke-miterlimit="10"/>
<path d="M257.094 315.326L243.015 326.054" stroke="black" stroke-width="1.6692" stroke-miterlimit="10"/>
<path d="M210.141 391.252L218.178 388.7" stroke="black" stroke-width="1.6692" stroke-miterlimit="10"/>
<path d="M206.796 317.958C206.796 317.958 153.218 378.72 162.793 431.987C163.435 435.418 166.292 438.102 169.778 438.134H188.342C188.955 438.134 189.558 437.985 190.101 437.701C190.607 437.456 191.047 437.094 191.383 436.644C191.72 436.194 191.943 435.67 192.035 435.115C192.127 434.561 192.084 433.993 191.911 433.458C191.737 432.924 191.438 432.439 191.038 432.045C190.766 431.77 190.449 431.543 190.101 431.374C189.604 431.121 189.053 430.992 188.496 430.995H182.718" stroke="black" stroke-width="1.6692" stroke-miterlimit="10"/>
<path d="M198.412 392.376L219.437 362.571L238.893 334.997C244.549 326.992 244.283 315.988 237.744 308.675C221.973 291.02 185.228 302.717 167.715 311.998C153.912 319.313 141.338 330.205 134.719 344.605C121.558 373.27 137.146 385.33 157.51 390.052C160.174 390.665 162.925 391.156 165.686 391.545" stroke="black" stroke-width="1.6692" stroke-miterlimit="10"/>
<path d="M210.137 391.249C210.137 391.249 205.483 391.891 198.411 392.376C191.471 402.6 183.645 413.279 174.879 424.203C174.625 424.515 174.472 424.896 174.438 425.297C174.404 425.698 174.492 426.1 174.689 426.45C175.509 427.832 176.673 428.976 178.069 429.771C179.465 430.566 181.044 430.983 182.65 430.983H182.74L210.137 391.236" stroke="black" stroke-width="1.6692" stroke-miterlimit="10"/>
<path d="M219.437 362.57H235.416C247.2 362.57 253.482 376.46 245.708 385.313L205.493 431.107H217.142C217.612 431.093 218.08 431.173 218.519 431.343C218.958 431.513 219.358 431.77 219.696 432.098C220.033 432.425 220.302 432.817 220.485 433.251C220.669 433.684 220.763 434.15 220.763 434.62C220.763 435.091 220.669 435.557 220.485 435.99C220.302 436.423 220.033 436.815 219.696 437.143C219.358 437.471 218.958 437.727 218.519 437.897C218.08 438.068 217.612 438.148 217.142 438.134H177.819" stroke="black" stroke-width="1.6692" stroke-miterlimit="10"/>
<path d="M161.882 425.349C159.821 427.522 158.216 429.993 156.637 432.523C155.69 434.048 154.865 435.842 156.37 437.357C157.616 438.593 158.938 438.157 159.988 437.421C160.819 436.821 161.495 436.031 161.959 435.117L163.063 433.024" stroke="black" stroke-width="1.6692" stroke-miterlimit="10"/>
<path d="M285.476 293.948C285.155 296.098 283.451 298.291 281.669 298.994C279.807 299.716 277.682 298.994 276.01 298.146C273.862 297.087 271.869 295.707 269.863 294.416L268.559 293.848C268.562 293.841 268.562 293.833 268.559 293.826C268.133 293.65 267.656 293.642 267.224 293.803C267.123 293.829 267.024 293.866 266.932 293.916C266.746 294.006 266.577 294.126 266.431 294.272C266.201 294.491 266.02 294.756 265.898 295.049C264.778 297.893 263.971 300.851 263.491 303.87L260.428 304.271C260.439 303.991 260.488 303.713 260.573 303.446C260.575 303.443 260.575 303.439 260.575 303.435C260.575 303.431 260.575 303.427 260.573 303.424C260.794 302.666 261.106 301.963 260.573 301.687C260.535 301.227 260.378 300.784 260.117 300.403C259.796 299.992 259.292 299.78 258.512 299.915C258.233 299.961 257.961 300.038 257.7 300.146C257.016 300.417 256.4 300.836 255.896 301.372C255.685 301.587 255.492 301.818 255.318 302.063C255.057 302.421 254.841 302.81 254.676 303.221C254.616 303.354 254.568 303.491 254.532 303.632C254.246 304.488 254.262 305.416 254.577 306.261C254.632 306.407 254.698 306.549 254.776 306.685L252.359 308.768C252.275 308.842 252.186 308.909 252.092 308.97C250.924 309.741 249.052 309.741 247.393 309.317C246.391 309.06 246.799 308.534 246.144 308.033C245.22 308.322 245.181 306.576 245.242 306.364C245.688 305.141 244.019 304.117 243.852 303.992C243.229 303.87 242.841 303.671 242.639 303.369H243.085C244.009 303.369 245.313 303.571 246.157 303.292C245.656 301.218 244.921 300.117 246.571 298.336C247.942 296.833 248.43 295.447 248.15 293.37C248.15 293.248 248.821 293.325 248.821 293.193C249.264 291.909 250.134 290.709 250.981 290.304C252.493 289.569 254.721 290.179 254.946 288.266C255.097 286.743 255.727 285.307 256.746 284.164C257.764 283.022 259.119 282.231 260.615 281.907C262.842 281.416 264.422 283.242 266.328 283.932C268.643 284.79 271.038 283.464 273.464 284.366C274.668 284.812 275.458 285.65 276.26 286.613C276.928 287.438 277.586 288.285 278.186 289.152C278.786 290.019 279.345 290.802 280.327 291.181C281.611 291.681 283.142 291.348 284.292 292.214C284.873 292.64 285.291 293.251 285.476 293.948Z" fill="#3FBDF1"/>
<path d="M243.516 303.439L245.082 306.113C245.612 307.015 246.366 308.896 247.329 309.291H247.348H247.374C249.053 309.959 250.876 309.798 252.07 308.97C252.17 308.908 252.264 308.836 252.35 308.755L254.76 306.669C253.271 304.008 255.685 300.374 258.484 299.892C259.916 299.652 260.41 300.534 260.567 301.658C260.625 302.245 260.625 302.836 260.567 303.423C260.567 303.61 260.545 303.776 260.529 303.953" stroke="black" stroke-width="1.6692" stroke-linecap="round" stroke-linejoin="round"/>
<path d="M274.982 301.137C274.982 301.137 270.841 299.016 268.139 301.901" stroke="black" stroke-width="1.6692" stroke-miterlimit="10"/>
<path d="M271.561 312.839C272.581 313.583 274.003 314.444 275.258 313.802L274.886 309.048C274.8 307.884 275.112 306.726 275.772 305.764C276.87 304.14 278.95 301.828 278.735 299.052" stroke="black" stroke-width="1.6692" stroke-miterlimit="10"/>
<path d="M273.33 305.826C273.716 305.146 273.561 304.329 272.982 304.001C272.404 303.672 271.623 303.957 271.237 304.637C270.85 305.317 271.006 306.134 271.584 306.462C272.162 306.791 272.944 306.506 273.33 305.826Z" fill="black"/>
<path d="M260.422 304.275C260.457 304.178 260.489 304.076 260.525 303.979C260.56 303.883 260.592 303.764 260.634 303.658" stroke="black" stroke-width="1.6692" stroke-linecap="round" stroke-linejoin="round"/>
<path d="M260.419 304.278L261.469 304.143L263.484 303.873" stroke="black" stroke-width="1.6692" stroke-linecap="round" stroke-linejoin="round"/>
<path d="M265.85 310.982C265.85 310.982 264.858 313.826 267.632 316.218" stroke="black" stroke-width="1.6692" stroke-miterlimit="10"/>
<path d="M230.335 303.369C231.259 303.369 245.297 303.571 246.141 303.292C245.64 301.218 244.905 300.117 246.555 298.335C247.926 296.833 248.414 295.446 248.134 293.369C248.114 293.241 248.104 293.111 248.102 292.981C247.99 291.177 248.815 289.752 250.407 288.869C251.922 288.025 253.649 288.192 253.884 286.221C253.979 285.364 254.215 284.529 254.583 283.749C255.101 282.737 255.83 281.847 256.722 281.142C257.614 280.436 258.647 279.93 259.751 279.66C262.047 279.149 263.671 281.04 265.655 281.752C268.027 282.635 270.511 281.274 273.005 282.189C274.251 282.654 275.063 283.515 275.894 284.516C276.597 285.373 277.265 286.243 277.878 287.145C278.479 287.989 279.079 288.837 280.093 289.225C281.409 289.739 283.001 289.392 284.17 290.294C285.338 291.196 285.707 292.567 285.483 293.938C285.162 296.088 283.457 298.281 281.676 298.984C279.814 299.706 277.689 298.984 276.016 298.136C273.869 297.077 271.876 295.697 269.869 294.406L268.566 293.838C268.139 293.658 267.66 293.642 267.221 293.793C267.119 293.819 267.021 293.856 266.929 293.906C266.745 293.999 266.577 294.119 266.428 294.262C266.198 294.48 266.016 294.745 265.895 295.039C264.775 297.883 263.968 300.841 263.488 303.86" stroke="black" stroke-width="1.6692" stroke-miterlimit="10"/>
<path d="M255.393 311.76C255.393 311.76 259.046 321.39 264.085 321.608C269.125 321.826 272.521 313.644 272.521 313.644" stroke="black" stroke-width="1.6692" stroke-linecap="round" stroke-linejoin="round"/>
<path d="M241.188 330.859L228.107 362.571" stroke="black" stroke-width="1.6692" stroke-miterlimit="10"/>
<path d="M242.873 321.483L243.011 321.614C242.963 321.293 242.905 321.017 242.847 320.722C242.774 319.191 242.485 317.678 241.987 316.228C241.389 314.433 240.477 312.76 239.294 311.284C226.887 291.524 191.487 302.72 191.487 302.72C169.98 305.93 135.954 328.198 130.401 357.714C124.848 387.23 161.933 390.953 163.75 391.258C164.233 391.363 164.738 391.291 165.174 391.056C165.609 390.82 165.945 390.437 166.122 389.974C176.988 352.096 203.287 322.186 203.291 322.182C206.18 318.889 206.895 315.159 210.876 312.645C215.229 309.894 220.531 309.371 225.427 310.832C238.02 314.588 240.023 327.469 236.389 338.544C236.389 338.544 242.96 330.487 242.873 321.483Z" fill="#2E2E2E"/>
<path d="M58.5936 274.287L58.584 274.3" stroke="#CCDDE2" stroke-width="1.6692" stroke-miterlimit="10"/>
<path d="M96.3692 274.143L96.3594 274.133" stroke="#CCDDE2" stroke-width="1.6692" stroke-miterlimit="10"/>
<path d="M54.7736 291.961C49.1176 297.552 43.3909 300.926 41.9882 299.501C40.5854 298.075 44.0394 292.407 49.6922 286.815C55.345 281.223 61.062 277.862 62.4648 279.278C62.4962 279.304 62.5197 279.338 62.5322 279.377C63.7263 280.944 60.3109 286.504 54.7736 291.961Z" stroke="black" stroke-width="1.6692" stroke-miterlimit="10"/>
<path d="M76.9029 296.749C76.882 299.418 76.2541 302.047 75.0667 304.437C73.8794 306.828 72.1639 308.916 70.0498 310.545C67.9357 312.175 65.4788 313.301 62.8649 313.84C60.2507 314.379 57.5485 314.316 54.9625 313.656C51.6735 312.808 48.7004 311.026 46.4027 308.524C44.1047 306.023 42.5802 302.91 42.0134 299.561C42.0073 299.542 42.0073 299.522 42.0134 299.503C43.4161 300.929 49.1428 297.555 54.7988 291.963C60.3328 286.506 63.7515 280.95 62.5606 279.38H62.5574C65.8868 280.008 68.9642 281.584 71.4195 283.919C73.8749 286.253 75.6038 289.247 76.3989 292.541C76.7385 293.918 76.9077 295.331 76.9029 296.749Z" fill="#3FBDF1"/>
<path d="M62.5581 279.368C61.181 275.766 63.5211 272.46 67.1163 271.664C71.6777 270.646 74.9584 274.132 76.9004 277.862C79.3304 282.533 78.5632 288.705 75.8668 293.212" stroke="black" stroke-width="1.6692" stroke-miterlimit="10"/>
<path d="M42.0783 299.597C38.4831 298.175 35.1575 300.477 34.3101 304.056C33.2347 308.601 36.6791 311.927 40.3866 313.917C45.0251 316.405 51.0984 315.798 55.6405 313.159" stroke="black" stroke-width="1.6692" stroke-miterlimit="10"/>
<path d="M73.3693 307.152L87.275 321.238C87.7616 321.744 88.0297 322.422 88.0204 323.124C88.0114 323.826 87.726 324.496 87.2265 324.99C86.7267 325.483 86.053 325.76 85.3506 325.76C84.6483 325.76 83.9742 325.484 83.4744 324.99L69.5654 310.902L73.3693 307.152Z" stroke="black" stroke-width="1.6692" stroke-miterlimit="10"/>
<path d="M97.7487 316.761C99.5367 318.575 96.7857 324.208 91.5694 329.348C86.3532 334.487 80.694 337.18 78.906 335.37C77.3363 333.781 79.2527 329.271 83.2299 324.735L83.4802 324.992C83.9849 325.46 84.6509 325.715 85.3392 325.703C86.0274 325.692 86.6845 325.416 87.174 324.932C87.6632 324.448 87.947 323.794 87.9656 323.106C87.9845 322.418 87.7367 321.749 87.2745 321.239L87.0209 320.986C91.6304 317.044 96.179 315.176 97.7487 316.761Z" fill="#3FBDF1"/>
<path d="M76.9029 296.749C76.882 299.418 76.2541 302.047 75.0667 304.437C73.8794 306.828 72.1639 308.916 70.0498 310.545C67.9357 312.175 65.4788 313.301 62.8649 313.84C60.2507 314.379 57.5485 314.316 54.9625 313.656C51.6735 312.808 48.7004 311.026 46.4027 308.524C44.1047 306.023 42.5802 302.91 42.0134 299.561C42.0073 299.542 42.0073 299.522 42.0134 299.503C43.4161 300.929 49.1428 297.555 54.7988 291.963C60.3328 286.506 63.7515 280.95 62.5606 279.38H62.5574C65.8868 280.008 68.9642 281.584 71.4195 283.919C73.8749 286.253 75.6038 289.247 76.3989 292.541C76.7385 293.918 76.9077 295.331 76.9029 296.749Z" stroke="black" stroke-width="1.6692" stroke-miterlimit="10"/>
<path d="M97.7487 316.761C99.5367 318.575 96.7857 324.208 91.5694 329.348C86.3532 334.487 80.694 337.18 78.906 335.37C77.3363 333.781 79.2527 329.271 83.2299 324.735L83.4802 324.992C83.9849 325.46 84.6509 325.715 85.3392 325.703C86.0274 325.692 86.6845 325.416 87.174 324.932C87.6632 324.448 87.947 323.794 87.9656 323.106C87.9845 322.418 87.7367 321.749 87.2745 321.239L87.0209 320.986C91.6304 317.044 96.179 315.176 97.7487 316.761Z" stroke="black" stroke-width="1.6692" stroke-miterlimit="10"/>
<path d="M59.0431 300.518L58.125 296.563L65.0586 303.398L67.4179 300.919L62.7731 305.738" stroke="white" stroke-width="2.22774" stroke-linecap="round" stroke-linejoin="round"/>
<g opacity="0.5">
<path opacity="0.5" d="M108.41 292.474C108.834 293.977 108.866 295.659 108.22 297.097C107.684 298.297 106.651 299.167 105.457 299.78C104.946 303.222 102.349 304.916 99.3769 305.369C99.2774 305.639 99.133 305.982 99.0206 306.207C97.8072 308.322 95.0338 309.314 92.774 309.86C91.4707 310.004 90.0551 309.882 89.0536 309C88.4064 308.434 87.9734 307.663 87.8273 306.817C87.6957 305.973 87.9076 305.125 87.9268 304.29C87.9493 302.451 87.4614 300.692 86.2127 299.312C82.8839 295.614 84.643 288.821 93.0404 288.7C101.438 288.578 107.53 290.423 110.503 286.594C110.521 286.633 110.536 286.674 110.548 286.716C110.724 288.51 110.387 290.715 108.41 292.474Z" fill="#3FBDF1"/>
</g>
<path d="M93.3291 299.803C94.0867 300.615 95.467 300.994 96.4589 301.161C99.5254 301.645 102.667 301.163 105.447 299.781C106.641 299.167 107.675 298.298 108.211 297.097C108.853 295.659 108.824 293.977 108.4 292.475" stroke="black" stroke-width="1.6692" stroke-miterlimit="10"/>
<path d="M92.0605 303.734C92.4811 304.347 93.2836 304.697 93.9865 304.915C94.0142 304.92 94.0411 304.927 94.0668 304.938C95.787 305.474 97.6058 305.618 99.389 305.358C102.361 304.915 104.958 303.211 105.469 299.77" stroke="black" stroke-width="1.6692" stroke-miterlimit="10"/>
<path d="M99.409 305.247C99.409 305.282 99.3866 305.327 99.3769 305.369C99.2774 305.639 99.133 305.982 99.0206 306.207C97.8072 308.322 95.0338 309.314 92.774 309.86L92.6391 309.892C91.1016 310.258 89.2975 310.36 87.9622 309.356C87.2155 308.792 86.6904 307.985 86.4792 307.073C86.2705 306.171 86.4471 305.237 86.3925 304.322C86.2801 302.319 85.6349 300.448 84.1647 299.032C80.2678 295.27 81.6802 287.752 90.7902 287.005C99.9002 286.257 106.67 287.807 109.623 283.419C110.121 284.458 110.434 285.576 110.548 286.722C110.724 288.516 110.39 290.722 108.41 292.481C107.385 293.361 106.191 294.023 104.901 294.426C96.0353 297.456 94.4656 294.747 94.4656 294.747" stroke="black" stroke-width="1.6692" stroke-miterlimit="10"/>
<g opacity="0.5">
<path opacity="0.5" d="M53.0205 345.224C54.5036 345.709 56.1824 345.808 57.6461 345.224C58.8692 344.736 59.7776 343.735 60.4356 342.569C63.896 342.194 65.7 339.68 66.265 336.714C66.5346 336.628 66.8845 336.496 67.1124 336.393C69.276 335.263 70.377 332.541 71.0126 330.294C71.2084 329.01 71.141 327.582 70.3032 326.545C69.7617 325.877 69.0086 325.414 68.1685 325.232C67.3275 325.065 66.4737 325.232 65.6391 325.232C63.8029 325.184 62.0631 324.622 60.7342 323.306C57.1711 319.833 50.3145 321.319 49.8587 329.707C49.4029 338.095 51.0015 344.264 47.0596 347.07C47.0987 347.091 47.1395 347.108 47.1816 347.121C48.9663 347.391 51.1812 347.137 53.0205 345.224Z" fill="#3FBDF1"/>
</g>
<path d="M60.9524 330.448C61.7357 331.238 62.0599 332.634 62.1851 333.629C62.5494 336.721 61.9379 339.849 60.4356 342.576C59.7936 343.741 58.8691 344.742 57.6461 345.23C56.1824 345.818 54.5035 345.718 53.0205 345.23" stroke="black" stroke-width="1.6692" stroke-miterlimit="10"/>
<path d="M64.9295 329.338C65.5266 329.784 65.838 330.599 66.0338 331.299C66.0338 331.331 66.0338 331.354 66.053 331.376C66.5195 333.117 66.592 334.939 66.2649 336.711C65.6999 339.668 63.8959 342.191 60.4355 342.566" stroke="black" stroke-width="1.6692" stroke-miterlimit="10"/>
<path d="M66.1398 336.739L66.265 336.71C66.5346 336.623 66.8845 336.492 67.1124 336.389C69.276 335.259 70.377 332.537 71.0126 330.29L71.0511 330.159C71.478 328.637 71.6514 326.839 70.7012 325.462C70.1671 324.695 69.3809 324.14 68.4799 323.893C67.5875 323.645 66.6438 323.787 65.7354 323.694C63.7355 323.504 61.8834 322.785 60.5352 321.26C56.9303 317.216 49.3611 318.33 48.2537 327.401C47.1462 336.473 48.4335 343.303 43.9395 346.077C44.9561 346.616 46.0584 346.973 47.1976 347.133C48.9824 347.38 51.1973 347.133 53.0366 345.207C53.9572 344.219 54.6673 343.053 55.1231 341.782C58.5 333.044 55.871 331.365 55.871 331.365" stroke="black" stroke-width="1.6692" stroke-miterlimit="10"/>
<g opacity="0.71">
<path opacity="0.71" d="M154.976 269.528C151.24 267.958 148.53 265.923 148.928 264.986C149.326 264.049 152.668 264.562 156.408 266.132C160.147 267.702 162.844 269.734 162.452 270.671C162.446 270.69 162.435 270.708 162.42 270.722C161.913 271.589 158.629 271.066 154.976 269.528Z" fill="#3FBDF1"/>
<path opacity="0.71" d="M165.945 277.192C164.34 279.118 161.544 279.988 159.027 279.76C160.394 278.735 161.44 277.343 162.044 275.746C162.648 274.148 162.784 272.412 162.436 270.74C163.874 269.395 165.877 269.85 166.959 271.382C168.317 273.327 167.325 275.555 165.945 277.192Z" fill="#3FBDF1"/>
<path opacity="0.71" d="M148.907 265.006C147.449 265.917 146.285 267.23 145.556 268.788C144.827 270.344 144.564 272.079 144.798 273.782C142.872 272.145 141.588 269.561 141.835 267.057C142.047 264.916 142.939 262.647 145.289 262.268C147.122 261.957 148.849 263.058 148.907 265.006Z" fill="#3FBDF1"/>
<path opacity="0.71" d="M151.474 281.265L147.561 290.574C147.421 290.907 147.155 291.17 146.82 291.307C146.486 291.443 146.111 291.441 145.778 291.301C145.445 291.161 145.182 290.894 145.045 290.56C144.909 290.226 144.911 289.851 145.051 289.518L148.964 280.209L151.474 281.265Z" fill="#3FBDF1"/>
<path opacity="0.71" d="M151.706 294.609C151.205 295.806 148.011 295.607 144.573 294.163C141.135 292.718 138.76 290.574 139.277 289.377C139.716 288.327 142.211 288.35 145.125 289.335L145.055 289.502C144.915 289.835 144.912 290.21 145.049 290.544C145.185 290.878 145.449 291.145 145.782 291.285C146.115 291.425 146.49 291.427 146.824 291.291C147.158 291.155 147.425 290.891 147.565 290.558L147.636 290.388C150.377 291.784 152.149 293.559 151.706 294.609Z" fill="#3FBDF1"/>
<g opacity="0.5">
<path opacity="0.5" d="M165.226 294.879C164.604 295.399 163.822 295.687 163.011 295.694C162.338 295.65 161.701 295.376 161.207 294.917C159.487 295.351 158.18 294.461 157.387 293.148C157.243 293.148 157.05 293.148 156.925 293.148C155.692 292.988 154.678 291.864 153.985 290.921C153.664 290.336 153.442 289.637 153.664 288.995C153.805 288.581 154.082 288.228 154.45 287.993C154.838 287.806 155.244 287.655 155.66 287.544C156.534 287.23 157.254 286.593 157.67 285.762C158.758 283.473 162.302 282.973 164 286.902C165.698 290.831 166.019 294.06 168.404 294.712C168.389 294.728 168.373 294.743 168.356 294.757C167.884 295.032 167.352 295.188 166.806 295.209C166.26 295.23 165.717 295.117 165.226 294.879Z" fill="#3FBDF1"/>
</g>
<g opacity="0.5">
<path opacity="0.5" d="M130.93 277.631C130.772 278.426 130.894 279.25 131.277 279.965C131.639 280.532 132.184 280.959 132.821 281.175C133.27 282.892 134.676 283.614 136.208 283.679C136.275 283.807 136.365 283.974 136.436 284.08C137.164 285.088 138.625 285.441 139.8 285.592C140.467 285.592 141.177 285.457 141.639 284.95C141.935 284.628 142.112 284.214 142.14 283.778C142.117 283.345 142.055 282.916 141.954 282.494C141.808 281.578 142.022 280.641 142.551 279.878C144.037 277.824 142.775 274.476 138.512 274.87C134.25 275.265 131.264 276.533 129.547 274.755L129.531 274.819C129.514 275.367 129.633 275.91 129.877 276.401C130.121 276.891 130.483 277.314 130.93 277.631Z" fill="#3FBDF1"/>
</g>
<path opacity="0.71" d="M162.437 270.742C161.891 271.602 158.63 271.063 154.987 269.542C151.475 268.059 148.907 266.178 148.907 265.173C148.906 265.108 148.917 265.044 148.939 264.983C148.939 264.983 148.916 264.983 148.916 265.006C147.458 265.917 146.295 267.23 145.566 268.787C144.837 270.344 144.574 272.079 144.808 273.782C144.808 273.804 144.808 273.837 144.808 273.859C145.001 275.206 145.498 276.491 146.261 277.617C147.024 278.742 148.034 279.68 149.214 280.357C150.394 281.035 151.712 281.435 153.07 281.527C154.427 281.619 155.787 281.401 157.047 280.889C157.717 280.611 158.352 280.256 158.938 279.83C158.973 279.807 158.996 279.785 159.028 279.762C160.394 278.738 161.441 277.346 162.044 275.748C162.648 274.151 162.784 272.414 162.437 270.742ZM154.261 272.479L152.502 276.501L153.593 276.957C153.729 277.016 153.836 277.127 153.89 277.265C153.944 277.402 153.941 277.556 153.882 277.692C153.838 277.792 153.764 277.876 153.67 277.933C153.577 277.991 153.469 278.019 153.359 278.013C153.291 278.012 153.224 278 153.16 277.977L151.555 277.3C151.52 277.3 151.488 277.265 151.452 277.255L150.027 276.642C149.959 276.615 149.898 276.575 149.846 276.524C149.794 276.472 149.753 276.411 149.726 276.344C149.698 276.277 149.684 276.205 149.684 276.132C149.685 276.059 149.7 275.987 149.729 275.92C149.756 275.851 149.798 275.789 149.85 275.737C149.902 275.684 149.964 275.643 150.033 275.614C150.101 275.586 150.174 275.572 150.249 275.573C150.322 275.574 150.396 275.589 150.464 275.618L151.475 276.064L152.467 273.795L152.341 273.872C152.281 273.913 152.214 273.942 152.143 273.956C152.072 273.971 151.998 273.972 151.927 273.958C151.855 273.945 151.787 273.917 151.727 273.877C151.666 273.838 151.613 273.786 151.573 273.726C151.532 273.666 151.503 273.598 151.488 273.527C151.474 273.456 151.473 273.383 151.486 273.311C151.5 273.24 151.527 273.172 151.568 273.111C151.607 273.05 151.659 272.998 151.719 272.957L153.433 271.798C153.532 271.728 153.653 271.693 153.774 271.7C153.896 271.706 154.012 271.753 154.104 271.834C154.195 271.911 154.259 272.015 154.287 272.131C154.316 272.247 154.306 272.368 154.261 272.479Z" fill="#3FBDF1"/>
</g>
<g opacity="0.5">
<path opacity="0.5" d="M91.184 371.624C92.5996 373.659 93.3315 375.598 92.8179 375.951C92.3043 376.304 90.7474 374.947 89.3318 372.911C87.9162 370.876 87.1843 368.941 87.6947 368.584H87.73C88.2757 368.286 89.8005 369.634 91.184 371.624Z" fill="#3FBDF1"/>
<path opacity="0.5" d="M88.0258 364.083C89.4928 363.617 91.2133 364.083 92.4427 365.02C91.4021 365.099 90.4057 365.473 89.5704 366.098C88.7352 366.724 88.0958 367.575 87.7273 368.551C86.5428 368.776 85.6568 367.884 85.6022 366.734C85.5348 365.293 86.7771 364.468 88.0258 364.083Z" fill="#3FBDF1"/>
<path opacity="0.5" d="M92.8411 375.96C93.9659 375.972 95.067 375.635 95.9934 374.997C96.8007 374.43 97.4379 373.653 97.8359 372.75C98.2949 374.227 98.1184 375.986 97.165 377.196C96.3561 378.233 95.1491 379.122 93.8138 378.541C92.7609 378.107 92.2312 376.974 92.8411 375.96Z" fill="#3FBDF1"/>
<path opacity="0.5" d="M96.8369 366.716L101.905 363.185C102.087 363.057 102.312 363.007 102.53 363.045C102.748 363.082 102.943 363.206 103.071 363.387C103.198 363.568 103.249 363.793 103.211 364.011C103.173 364.23 103.05 364.424 102.868 364.552L97.8031 368.083L96.8369 366.716Z" fill="#3FBDF1"/>
<path opacity="0.5" d="M101.078 359.737C101.72 359.285 103.325 360.434 104.609 362.305C105.893 364.177 106.439 366.064 105.787 366.517C105.216 366.915 103.932 366.087 102.75 364.623L102.84 364.559C103.022 364.431 103.144 364.236 103.183 364.018C103.221 363.799 103.17 363.575 103.042 363.393C102.915 363.212 102.72 363.089 102.502 363.051C102.283 363.013 102.059 363.063 101.877 363.191L101.784 363.255C100.85 361.634 100.516 360.135 101.078 359.737Z" fill="#3FBDF1"/>
<g opacity="0.5">
<path opacity="0.5" d="M94.1919 355.172C94.6824 355.107 95.1803 355.214 95.6011 355.474C95.9327 355.718 96.1712 356.068 96.2784 356.466C97.3088 356.806 97.694 357.695 97.6716 358.633C97.7537 358.679 97.833 358.731 97.9091 358.787C98.4965 359.272 98.6538 360.177 98.702 360.899C98.7049 361.104 98.6651 361.307 98.5855 361.496C98.5062 361.685 98.3884 361.856 98.2397 361.997C98.0321 362.165 97.7724 362.258 97.5046 362.257C97.2421 362.226 96.9833 362.171 96.731 362.093C96.1824 361.972 95.6085 362.066 95.126 362.353C93.8131 363.181 91.8197 362.279 92.237 359.692C92.6543 357.105 93.5371 355.333 92.5195 354.216H92.558C92.8877 354.23 93.2087 354.325 93.4934 354.491C93.7782 354.658 94.0179 354.892 94.1919 355.172Z" fill="#3FBDF1"/>
</g>
<g opacity="0.5">
<path opacity="0.5" d="M107.453 374.998C107.697 374.567 107.785 374.064 107.7 373.576C107.598 373.177 107.363 372.825 107.033 372.578C107.1 371.493 106.42 370.806 105.543 370.475C105.543 370.389 105.508 370.273 105.489 370.196C105.257 369.474 104.477 368.989 103.823 368.674C103.634 368.595 103.43 368.557 103.225 368.56C103.02 368.563 102.818 368.609 102.632 368.694C102.399 368.824 102.218 369.03 102.118 369.278C102.049 369.533 102.004 369.794 101.983 370.058C101.89 370.618 101.585 371.121 101.133 371.464C99.8775 372.372 99.9706 374.558 102.523 375.143C105.075 375.727 107.052 375.563 107.71 376.927C107.718 376.916 107.724 376.904 107.729 376.892C107.843 376.578 107.878 376.241 107.83 375.91C107.782 375.58 107.652 375.266 107.453 374.998Z" fill="#3FBDF1"/>
</g>
<path opacity="0.5" d="M87.7275 368.555C88.2893 368.288 89.8012 369.633 91.1815 371.614C92.5008 373.517 93.2263 375.337 92.8956 375.857C92.8754 375.891 92.8494 375.92 92.8186 375.944C92.8186 375.944 92.8186 375.944 92.8379 375.944C93.9626 375.956 95.0637 375.619 95.9901 374.981C96.7964 374.419 97.4346 373.648 97.8358 372.75C97.8358 372.75 97.8358 372.718 97.8551 372.708C98.1957 371.949 98.3594 371.123 98.3334 370.292C98.3077 369.46 98.0929 368.646 97.7058 367.91C97.3184 367.174 96.7688 366.536 96.0986 366.043C95.428 365.551 94.6544 365.217 93.8362 365.069C93.3986 364.991 92.9537 364.966 92.5104 364.995H92.443C91.4023 365.073 90.406 365.448 89.5707 366.073C88.7355 366.699 88.096 367.55 87.7275 368.526V368.555ZM92.5201 370.333L94.7446 368.834L94.3369 368.256C94.2865 368.181 94.2682 368.088 94.2856 367.999C94.3029 367.91 94.3549 367.832 94.43 367.781C94.4849 367.741 94.5514 367.719 94.6194 367.719C94.6875 367.719 94.7539 367.741 94.8088 367.781C94.8441 367.802 94.8756 367.829 94.9019 367.861L95.5118 368.741C95.5278 368.76 95.5375 368.782 95.5503 368.799L96.0864 369.582C96.1143 369.617 96.1345 369.659 96.1454 369.702C96.1567 369.746 96.1583 369.792 96.1503 369.836C96.1425 369.881 96.1252 369.923 96.0999 369.961C96.0745 369.998 96.0414 370.03 96.0029 370.054C95.966 370.08 95.9243 370.098 95.88 370.108C95.8357 370.118 95.7901 370.119 95.7455 370.111C95.7009 370.103 95.6585 370.086 95.6206 370.061C95.5827 370.036 95.55 370.005 95.5246 369.967L95.1394 369.408L93.8843 370.259H93.971C94.0153 370.257 94.0593 370.265 94.1007 370.28C94.1424 370.296 94.1803 370.319 94.2127 370.35C94.2448 370.38 94.2711 370.416 94.2894 370.457C94.3077 370.497 94.3177 370.541 94.3193 370.585C94.3209 370.629 94.3135 370.673 94.2978 370.715C94.2824 370.756 94.2586 370.794 94.2284 370.827C94.1983 370.859 94.162 370.885 94.1215 370.903C94.0811 370.922 94.0378 370.932 93.9935 370.933L92.7287 370.972C92.6562 370.974 92.5849 370.952 92.5268 370.909C92.4684 370.866 92.4263 370.804 92.4077 370.734C92.3804 370.664 92.3766 370.587 92.3968 370.515C92.417 370.442 92.4604 370.378 92.5201 370.333Z" fill="#3FBDF1"/>
</g>
<path d="M126.941 309.603C125.339 309.601 123.774 310.075 122.442 310.964C121.111 311.852 120.072 313.116 119.459 314.595C118.846 316.074 118.685 317.702 118.997 319.272C119.309 320.843 120.08 322.285 121.212 323.417C122.344 324.549 123.787 325.32 125.357 325.632C126.927 325.944 128.555 325.784 130.034 325.17C131.513 324.557 132.777 323.519 133.666 322.187C134.554 320.855 135.028 319.29 135.027 317.689C135.027 316.627 134.818 315.575 134.411 314.594C134.005 313.613 133.409 312.722 132.658 311.971C131.907 311.22 131.016 310.625 130.035 310.218C129.054 309.812 128.003 309.603 126.941 309.603ZM128.587 315.291L126.828 319.313L127.92 319.769C128.055 319.828 128.162 319.938 128.216 320.076C128.271 320.214 128.268 320.368 128.209 320.504C128.164 320.604 128.09 320.688 127.997 320.745C127.903 320.803 127.795 320.83 127.685 320.825C127.618 320.824 127.55 320.812 127.486 320.789L125.881 320.112C125.846 320.112 125.814 320.077 125.782 320.067L124.353 319.454C124.286 319.427 124.224 319.387 124.172 319.336C124.121 319.284 124.08 319.223 124.052 319.156C124.024 319.089 124.01 319.017 124.011 318.944C124.011 318.871 124.026 318.799 124.055 318.732C124.083 318.663 124.124 318.601 124.176 318.548C124.228 318.496 124.29 318.454 124.359 318.426C124.428 318.398 124.501 318.384 124.575 318.384C124.649 318.385 124.722 318.401 124.79 318.43L125.814 318.863L126.806 316.594L126.684 316.671C126.624 316.718 126.555 316.752 126.482 316.771C126.408 316.79 126.332 316.794 126.257 316.782C126.182 316.77 126.11 316.744 126.046 316.703C125.982 316.663 125.927 316.609 125.884 316.547C125.841 316.484 125.812 316.414 125.797 316.339C125.783 316.265 125.784 316.188 125.8 316.114C125.816 316.04 125.848 315.97 125.892 315.908C125.936 315.847 125.993 315.795 126.058 315.756L127.775 314.597C127.874 314.527 127.994 314.492 128.115 314.498C128.237 314.505 128.352 314.552 128.443 314.633C128.534 314.712 128.598 314.819 128.624 314.938C128.65 315.056 128.637 315.18 128.587 315.291Z" fill="#3FBDF1"/>
<path d="M75.944 352.019C75.9215 352.819 76.1366 353.607 76.5622 354.285C76.9879 354.962 77.6048 355.498 78.3351 355.825C79.0654 356.152 79.8762 356.255 80.6653 356.121C81.4539 355.987 82.1852 355.621 82.7665 355.072C83.3475 354.522 83.7526 353.812 83.9305 353.032C84.1083 352.252 84.0505 351.436 83.7651 350.689C83.4795 349.942 82.9784 349.296 82.3258 348.833C81.6729 348.371 80.8977 348.112 80.0977 348.09C79.0259 348.061 77.9865 348.458 77.2078 349.195C76.4287 349.932 75.9742 350.948 75.944 352.019ZM78.833 351.274L80.82 352.209L81.0639 351.67C81.0954 351.603 81.1516 351.551 81.2209 351.526C81.2899 351.501 81.3663 351.504 81.4331 351.534C81.4841 351.557 81.5268 351.595 81.5557 351.642C81.5843 351.69 81.5977 351.745 81.5936 351.801C81.5936 351.835 81.5868 351.869 81.5743 351.901L81.2116 352.7L81.1891 352.748L80.8681 353.451C80.854 353.485 80.8331 353.515 80.8068 353.541C80.7805 353.566 80.7494 353.586 80.715 353.599C80.681 353.612 80.6444 353.618 80.6081 353.617C80.5715 353.616 80.5356 353.607 80.5022 353.592C80.4682 353.577 80.4377 353.556 80.4123 353.529C80.3869 353.502 80.367 353.47 80.3542 353.435C80.3414 353.401 80.3356 353.363 80.3372 353.327C80.3391 353.29 80.3481 353.253 80.3642 353.22L80.5953 352.716L79.4718 352.19L79.5103 352.251C79.5299 352.281 79.5434 352.315 79.5498 352.351C79.5562 352.387 79.5556 352.423 79.5478 352.459C79.5398 352.494 79.5254 352.528 79.5045 352.557C79.484 352.587 79.4573 352.613 79.4268 352.633C79.3963 352.652 79.3623 352.665 79.3264 352.672C79.2907 352.678 79.2541 352.677 79.2185 352.67C79.1832 352.662 79.1495 352.647 79.1196 352.627C79.0898 352.606 79.0644 352.58 79.0448 352.549L78.4895 351.676C78.4581 351.627 78.4436 351.569 78.4484 351.511C78.4529 351.453 78.4764 351.398 78.5152 351.355C78.5518 351.313 78.5999 351.283 78.6539 351.269C78.7075 351.254 78.7643 351.256 78.8169 351.274H78.833Z" fill="#3FBDF1"/>
</g>
</g>
</g>
<defs>
<clipPath id="clip0_389_1245">
<rect width="1270" height="720" fill="white"/>
</clipPath>
<clipPath id="clip1_389_1245">
<rect width="321" height="321" fill="white" transform="translate(-1 132)"/>
</clipPath>
</defs>
</svg>
